<svg width="68" height="32" viewBox="0 0 68 32" fill="none" xmlns="http://www.w3.org/2000/svg">
<g clip-path="url(#clip0_2277_52501)">
<path d="M0.628906 32H23.5984V15.7869H0.628906V32ZM8.75429 22.6242L10.9198 24.7921L15.9357 19.7707L17.546 21.3827L10.9198 28.0162L7.14402 24.2362L8.75429 22.6242ZM7.40314 8.59757C7.40314 6.00347 9.51315 3.89114 12.1229 3.89114C14.7141 3.89114 16.8241 6.00347 16.8241 8.59757V13.4708H20.711V8.59757C20.6925 3.85408 16.8426 0 12.1229 0C7.38463 0 3.53479 3.85408 3.53479 8.59757V13.4708H7.42165V8.59757H7.40314ZM42.4219 14.3787C42.4219 12.044 41.0522 10.7099 38.8867 9.89462L36.8877 9.04227C35.296 8.46786 34.1854 8.07875 34.1854 7.0967C34.1854 6.13318 35.0183 5.59583 36.2584 5.59583C37.8687 5.59583 38.9052 6.07759 40.0527 6.91141L41.9406 4.55819C40.4414 3.14997 38.461 2.39027 36.462 2.39027C32.9083 2.39027 30.4281 4.55819 30.4281 7.30052C30.4281 9.70932 32.0939 11.1175 33.9448 11.8031L36.0733 12.7111C37.6466 13.3596 38.6275 13.6746 38.6275 14.8419C38.6275 15.6757 37.8872 16.2872 36.3139 16.2872C34.7222 16.2872 33.1859 15.5831 31.9459 14.564L29.7988 17.121C31.5572 18.696 33.8338 19.4928 36.0548 19.4928C40.1268 19.4928 42.4219 17.1025 42.4219 14.3787ZM51.5097 9.89462L49.5107 9.04227C47.919 8.46786 46.8085 8.07875 46.8085 7.0967C46.8085 6.13318 47.6414 5.59583 48.8814 5.59583C50.4917 5.59583 51.5282 6.07759 52.6758 6.91141L54.5637 4.55819C53.0644 3.14997 51.084 2.39027 49.085 2.39027C45.5313 2.39027 43.0512 4.55819 43.0512 7.30052C43.0512 9.70932 44.717 11.1175 46.5678 11.8031L48.6964 12.7111C50.2696 13.3596 51.2506 13.6746 51.2506 14.8419C51.2506 15.6757 50.5102 16.2872 48.937 16.2872C47.3452 16.2872 45.809 15.5831 44.5689 14.564L42.4219 17.121C44.1802 18.696 46.4568 19.4928 48.6778 19.4928C52.7683 19.4928 55.0634 17.121 55.0634 14.3787C55.0449 12.044 53.6937 10.7099 51.5097 9.89462Z" fill="#9597AC"/>
<path d="M60.1715 16.0471V2.6875H56.4697V19.1785H67.501V16.0471H60.1715Z" fill="#9597AC"/>
<path d="M33.2969 25.0353L32.2974 24.6091C31.6866 24.3497 31.0203 24.1088 31.0203 23.4232C31.0203 22.7747 31.5756 22.3856 32.4085 22.3856C33.1488 22.3856 33.6856 22.645 34.1668 23.0527L34.6481 22.4597C34.1298 21.9409 33.3524 21.5703 32.4455 21.5703C31.0944 21.5703 30.1134 22.3671 30.1134 23.4603C30.1134 24.4979 30.9463 25.0168 31.6496 25.2947L32.6676 25.7394C33.3895 26.0544 33.9447 26.2767 33.9447 27.0364C33.9447 27.7035 33.3709 28.1667 32.39 28.1667C31.5756 28.1667 30.8352 27.8147 30.2985 27.2773L29.7617 27.9073C30.4095 28.5558 31.298 28.9635 32.353 28.9635C33.9262 28.9635 34.8702 28.0555 34.8702 26.9253C34.8702 25.8691 34.1668 25.3873 33.2969 25.0353Z" fill="#9597AC"/>
<path d="M37.7019 25.4753H40.6633V24.6971H37.7019V22.455H41.2V21.6953H36.7949V28.8291H41.3111V28.0508H37.7019V25.4753Z" fill="#9597AC"/>
<path d="M45.9569 28.1618C44.5873 28.1618 43.6988 27.0315 43.6988 25.2342C43.6988 23.4554 44.5873 22.3436 45.9569 22.3436C46.5492 22.3436 47.0304 22.603 47.3821 22.9922L47.9003 22.4177C47.4931 21.9545 46.8083 21.5469 45.9569 21.5469C44.106 21.5469 42.7549 22.9551 42.7549 25.2527C42.7549 27.5874 44.106 28.9586 45.8644 28.9586C46.8083 28.9586 47.5117 28.5695 48.0669 27.9209L47.5487 27.3651C47.123 27.8839 46.6232 28.1618 45.9569 28.1618ZM53.3604 26.1607C53.3604 27.643 52.7126 28.1803 51.8427 28.1803C50.9913 28.1803 50.3435 27.643 50.3435 26.1607V21.6951H49.4366V26.1421C49.4366 28.1803 50.4546 28.9771 51.8427 28.9771C53.2309 28.9771 54.2304 28.1989 54.2304 26.1421V21.6951H53.3419V26.1607H53.3604ZM60.8935 23.6963C60.8935 22.2139 59.857 21.6951 58.4134 21.6951H56.1923V28.8289H57.0992V25.8086H58.3763L60.0977 28.8289H61.1342L59.3203 25.716C60.2457 25.4751 60.8935 24.808 60.8935 23.6963ZM58.2653 25.0674H57.0807V22.4177H58.2653C59.3758 22.4177 59.9866 22.7513 59.9866 23.6963C59.9866 24.6227 59.3758 25.0674 58.2653 25.0674Z" fill="#9597AC"/>
<path d="M63.7624 25.4753H66.7238V24.6971H63.7624V22.455H67.2605V21.6953H62.8369V28.8291H67.3716V28.0508H63.7624V25.4753Z" fill="#9597AC"/>
</g>
<defs>
<clipPath id="clip0_2277_52501">
<rect width="66.7429" height="32" fill="white" transform="translate(0.628906)"/>
</clipPath>
</defs>
</svg>
