<svg width="56" height="56" viewBox="0 0 56 56" fill="none" xmlns="http://www.w3.org/2000/svg">
<path fill-rule="evenodd" clip-rule="evenodd" d="M1.75 28C1.75 13.5558 13.5558 1.75 28 1.75C42.4442 1.75 54.25 13.5558 54.25 28C54.25 42.4442 42.4442 54.25 28 54.25C13.5558 54.25 1.75 42.4442 1.75 28ZM28 7.58333C16.7775 7.58333 7.58333 16.7775 7.58333 28C7.58333 39.2225 16.7775 48.4167 28 48.4167C39.2225 48.4167 48.4167 39.2225 48.4167 28C48.4167 16.7775 39.2225 7.58333 28 7.58333Z" fill="#15803D"/>
<path fill-rule="evenodd" clip-rule="evenodd" d="M39.9807 19.3327C41.1187 20.4727 41.1171 22.3194 39.9771 23.4574L26.7471 36.6641C25.6078 37.8014 23.7624 37.8006 22.6241 36.6623L16.0208 30.059C14.8817 28.9199 14.8817 27.0732 16.0208 25.9342C17.1598 24.7951 19.0065 24.7951 20.1456 25.9342L24.6883 30.4769L35.8559 19.329C36.996 18.191 38.8427 18.1926 39.9807 19.3327Z" fill="#15803D"/>
</svg>
