<svg width="73" height="72" viewBox="0 0 73 72" fill="none" xmlns="http://www.w3.org/2000/svg">
<path d="M9.37896 43.8563C10.3851 41.9665 12.0035 41.2781 14.2887 40.7818C14.7124 40.6877 15.1351 40.6193 15.5453 40.5519C17.3134 40.2628 19.1389 39.9645 20.9817 37.7852C21.7337 36.8971 22.3475 35.9748 22.9401 35.0848C24.0278 33.4544 24.9653 32.0448 26.3878 31.3792C28.0698 30.5938 28.8844 30.9949 29.0552 31.2156C29.0656 31.228 29.0722 31.2386 29.075 31.2472C28.9957 31.5974 28.353 32.0523 27.8811 32.3879C27.0917 32.9481 25.466 34.9165 26.1395 36.4604C26.2046 36.6107 26.2898 36.7545 26.3884 36.8812C26.7697 37.3763 27.3111 37.5934 27.8382 37.8055C28.3577 38.0139 28.8448 38.2105 29.1967 38.6644L29.6151 38.34C28.7007 37.1579 27.1297 37.4079 26.627 36.2501C26.1243 35.0922 27.4314 33.3551 28.193 32.8167C28.9546 32.2783 29.5351 31.8278 29.6089 31.2855C29.6836 30.7462 28.5463 29.7863 26.1698 30.8974C23.7933 32.0086 22.7098 34.9249 20.5823 37.439C18.4549 39.953 16.4449 39.765 14.1779 40.2586C11.9109 40.7522 10.0574 41.4602 8.91417 43.6014C7.77385 45.7417 7.88781 47.7324 11.4692 52.3651L11.8876 52.0407C8.44846 47.5904 8.34584 45.7899 9.37995 43.8496L9.37896 43.8563Z" fill="#FCFCFC"/>
<path d="M18.9398 56.8586C20.9975 56.5245 22.0841 55.2571 23.1687 53.32C23.3718 52.9614 23.5502 52.5958 23.7244 52.2413C24.4738 50.7131 25.2474 49.1351 27.8042 48.1253C28.8464 47.7127 29.8837 47.4373 30.8847 47.1713C32.7192 46.6819 34.3045 46.2615 35.3168 45.1664C36.5123 43.8709 36.3524 43.001 36.1897 42.7762C36.1807 42.7628 36.1725 42.7535 36.1651 42.7482C35.8127 42.7121 35.2095 43.159 34.7651 43.4867C34.0229 44.0353 31.724 44.9119 30.4455 43.8164C30.3209 43.7102 30.2079 43.5876 30.1147 43.458C29.7492 42.9555 29.6897 42.3926 29.631 41.8444C29.5739 41.3043 29.6114 39.0332 29.277 38.5703L29.631 38.4121C30.5026 39.6158 29.8162 42.6162 30.7756 43.4356C31.7351 44.255 33.7296 43.598 34.4437 43.0682C35.1578 42.5384 35.7401 42.147 36.2726 42.2478C36.8027 42.3468 37.4041 43.6855 35.7136 45.5154C34.0232 47.3453 30.9739 47.4316 28.024 48.5981C25.0741 49.7646 24.7107 51.6624 23.6336 53.5837C22.5565 55.5051 21.388 56.9815 19.0556 57.3631C16.7248 57.7423 14.8733 57.0201 11.4573 52.3047L11.8766 52.0226C15.1586 56.5511 16.8333 57.2039 18.9464 56.8598L18.9398 56.8586Z" fill="#FCFCFC"/>
<path d="M26.5791 38.2069C26.6376 37.3072 26.2319 36.7375 25.4592 37.5624C24.6874 38.3902 22.3032 40.5273 20.5974 41.1234C18.8915 41.7195 16.3615 42.2642 16.0213 43.4785C15.681 44.6928 15.8041 44.8941 16.3115 45.5514C16.6207 45.9524 17.5244 47.1508 17.7634 47.4731L26.6103 40.6346C26.5389 39.5805 26.551 38.607 26.5791 38.2069Z" fill="#E95135"/>
<path d="M30.1609 40.0215L30.0227 40.1334L27.9551 37.4563L28.0951 37.3501L30.1609 40.0215ZM27.201 38.0177L27.058 38.1248L29.1475 40.8298L29.2857 40.7178L27.1981 38.0186L27.201 38.0177ZM28.9816 36.6883L28.8387 36.7954L30.8836 39.4418L31.0218 39.3299L28.9778 36.6863L28.9816 36.6883ZM30.0063 35.924L29.8662 36.0302L31.8883 38.6459L32.0275 38.5368L30.0101 35.9259L30.0063 35.924ZM31.0357 35.155L30.8956 35.2612L32.8912 37.8443L33.0294 37.7323L31.0386 35.154L31.0357 35.155ZM25.5115 39.2855L25.3714 39.3917L27.5035 42.1494L27.6427 42.0404L25.5153 39.2874L25.5115 39.2855ZM24.8111 39.807L24.671 39.9132L26.8203 42.694L26.9585 42.582L24.814 39.8061L24.8111 39.807ZM26.2608 43.1408L26.326 43.0877L24.1654 40.2916L24.0992 40.3419C24.0743 40.3627 24.0493 40.3836 24.0272 40.4035L26.1831 43.1948C26.209 43.1768 26.2358 43.1617 26.2608 43.1408ZM26.2876 38.7042L26.1475 38.8104L28.2588 41.5432L28.398 41.4341L26.2876 38.7042ZM32.1822 34.2968L32.0392 34.404L34.0064 36.9487L34.1446 36.8367L32.1822 34.2968ZM34.5912 32.498L34.4511 32.6042L36.3585 35.0731L36.4977 34.964L34.5922 32.5009L34.5912 32.498ZM43.7612 25.6461L43.6211 25.7523L45.3027 27.9295L45.4409 27.8175L43.764 25.6451L43.7612 25.6461ZM42.0016 26.9622L41.8615 27.0684L43.5868 29.3013L43.7259 29.1922L42.0054 26.9642L42.0016 26.9622ZM47.6103 22.7691L47.4673 22.8763L49.0541 24.9287L49.1923 24.8168L47.6103 22.7691ZM40.3332 28.2072L40.1903 28.3144L41.9582 30.6L42.0964 30.4881L40.3332 28.2072ZM45.5821 24.2844L45.442 24.3906L47.0791 26.5093L47.2182 26.4002L45.5859 24.2863L45.5821 24.2844ZM38.8059 29.3489L38.6629 29.4561L40.466 31.7906L40.6042 31.6787L38.803 29.3499L38.8059 29.3489ZM49.934 21.03L49.5915 21.2851L51.1242 23.2694L51.4591 23.0009L49.933 21.0272L49.934 21.03ZM35.8605 31.5488L35.7176 31.656L37.5927 34.0846L37.7309 33.9726L35.8576 31.5498L35.8605 31.5488ZM33.2989 33.4643L33.1588 33.5705L35.0985 36.0797L35.2367 35.9677L33.3018 33.4633L33.2989 33.4643ZM37.2555 30.5077L37.1125 30.6148L38.9535 32.9974L39.0917 32.8854L37.2517 30.5057L37.2555 30.5077Z" fill="white"/>
<path d="M51.9344 17.9374L51.9813 17.9157C52.2237 17.8014 52.3266 17.5135 52.2123 17.2711C52.0981 17.0288 51.8101 16.9259 51.5678 17.0401L51.5151 17.0637L51.4915 17.0111C51.3773 16.7687 51.0893 16.6658 50.847 16.7801C50.6046 16.8943 50.5018 17.1822 50.616 17.4246L50.6396 17.4773L50.5869 17.5009C50.3446 17.6151 50.2417 17.903 50.3559 18.1454C50.4701 18.3877 50.7581 18.4906 51.0004 18.3764L51.0474 18.3547C51.306 18.2319 51.4984 18.4996 51.7335 19.0044L51.8628 18.943L51.9921 18.8816C51.7552 18.3806 51.67 18.062 51.9258 17.9402L51.9344 17.9374Z" fill="#FF826B"/>
<path d="M54.243 16.8671L54.2899 16.8454C54.5323 16.7311 54.6352 16.4432 54.5209 16.2008C54.4067 15.9585 54.1187 15.8556 53.8764 15.9698L53.8237 15.9934L53.8001 15.9407C53.6859 15.6984 53.3979 15.5955 53.1556 15.7097C52.9132 15.824 52.8103 16.1119 52.9246 16.3543L52.9482 16.407L52.8955 16.4305C52.6531 16.5448 52.5503 16.8327 52.6645 17.0751C52.7787 17.3174 53.0667 17.4203 53.309 17.3061L53.356 17.2844C53.6146 17.1616 53.8042 17.4302 54.0421 17.9341L54.1714 17.8727L54.3007 17.8113C54.0637 17.3103 53.9786 16.9917 54.2344 16.8699L54.243 16.8671Z" fill="#FF826B"/>
<path d="M56.5516 15.8046L56.5985 15.7829C56.8409 15.6686 56.9438 15.3807 56.8295 15.1383C56.7153 14.896 56.4273 14.7931 56.185 14.9073L56.1323 14.9309L56.1087 14.8782C55.9945 14.6359 55.7065 14.533 55.4642 14.6472C55.2218 14.7615 55.1189 15.0494 55.2332 15.2918L55.2568 15.3445L55.2041 15.368C54.9617 15.4823 54.8589 15.7702 54.9731 16.0126C55.0873 16.2549 55.3753 16.3578 55.6176 16.2436L55.6674 16.2209C55.9261 16.0982 56.1156 16.3668 56.3536 16.8706L56.4829 16.8092L56.6122 16.7479C56.3752 16.2469 56.2901 15.9283 56.5458 15.8065L56.5516 15.8046Z" fill="#FF826B"/>
<path d="M58.8592 14.7382L58.9061 14.7165C59.1485 14.6022 59.2514 14.3143 59.1371 14.0719C59.0229 13.8296 58.7349 13.7267 58.4926 13.8409L58.4399 13.8645L58.4163 13.8118C58.3021 13.5695 58.0141 13.4666 57.7718 13.5808C57.5294 13.6951 57.4266 13.983 57.5408 14.2254L57.5644 14.278L57.5117 14.3016C57.2694 14.4159 57.1665 14.7038 57.2807 14.9462C57.3949 15.1885 57.6829 15.2914 57.9252 15.1772L57.975 15.1545C58.2308 15.0327 58.4233 15.3003 58.6612 15.8042L58.7905 15.7428L58.9198 15.6815C58.6828 15.1805 58.5977 14.8619 58.8563 14.7391L58.8592 14.7382Z" fill="#FF826B"/>
<path d="M51.7653 22.6096L50.4219 20.8724C50.5566 20.7394 50.6324 20.5962 50.6653 20.4483C50.7054 20.2677 50.6777 20.0957 50.6424 19.9537C50.6288 19.8987 50.613 19.8447 50.5989 19.7966C50.595 19.7831 50.5911 19.77 50.5875 19.7575C50.5703 19.6975 50.558 19.6504 50.5522 19.6109C50.5463 19.5708 50.5495 19.5523 50.5518 19.5453C50.5518 19.5452 50.5519 19.5451 50.5519 19.5449C50.5523 19.5434 50.5533 19.5396 50.5659 19.5325C50.7349 19.4375 51.6267 19.0212 52.8304 18.4655C53.4013 18.202 54.0475 17.9047 54.7156 17.5973C55.4394 17.2643 56.1889 16.9194 56.8964 16.5928C58.2701 15.9586 59.1465 15.6098 59.7712 15.5204C60.0789 15.4764 60.3158 15.497 60.5165 15.5716C60.7172 15.6462 60.8949 15.7798 61.0763 15.9836C61.4446 16.3995 61.6178 16.7907 61.6367 17.1481C61.6539 17.4719 61.5454 17.7866 61.3085 18.0875L61.2358 18.1709C60.9347 18.5163 60.7292 18.6471 60.6022 18.683C60.5426 18.6999 60.5048 18.6947 60.4809 18.686C60.4559 18.677 60.4328 18.6594 60.4116 18.6317L60.4114 18.6315C60.1976 18.3543 59.9482 18.1715 59.6643 18.0947C59.3805 18.0179 59.0794 18.0516 58.7705 18.1758C58.1601 18.4213 57.4915 19.0309 56.7861 19.9328C56.1831 20.7021 55.7336 21.3463 55.4039 21.8188C55.3481 21.8987 55.2958 21.9737 55.2468 22.0435C55.0755 22.2873 54.9485 22.462 54.8543 22.5677C54.8253 22.6003 54.8028 22.6224 54.7861 22.6368C54.1871 22.2257 53.6664 22.0309 53.1582 22.0479C52.6774 22.064 52.232 22.2689 51.7653 22.6096Z" stroke="white" stroke-width="0.3"/>
<path d="M52.9397 20.0775C52.7498 20.3812 52.3499 20.4707 52.0453 20.2779C51.7416 20.088 51.6521 19.6881 51.842 19.3844C52.0329 19.0836 52.4347 18.9903 52.7364 19.1841C53.0401 19.374 53.1296 19.7738 52.9368 20.0785L52.9397 20.0775Z" fill="#E95135"/>
<path d="M52.6196 19.8679C52.5396 19.9926 52.377 20.0299 52.2523 19.9499C52.1285 19.8728 52.0903 19.7073 52.1703 19.5826C52.2474 19.4588 52.4129 19.4206 52.5376 19.5006C52.6614 19.5777 52.6996 19.7432 52.6196 19.8679Z" fill="#15151A"/>
<path d="M55.2928 18.9842C55.1028 19.2879 54.703 19.3774 54.3984 19.1846C54.0975 18.9938 54.0052 18.5949 54.198 18.2902C54.3888 17.9894 54.7877 17.8971 55.0924 18.0898C55.3961 18.2798 55.4855 18.6796 55.2956 18.9833L55.2928 18.9842Z" fill="#E95135"/>
<path d="M54.9741 18.7741C54.897 18.8979 54.7315 18.9361 54.6068 18.8561C54.483 18.779 54.4448 18.6135 54.5248 18.4888C54.6019 18.3651 54.7674 18.3268 54.8921 18.4068C55.0159 18.4839 55.0541 18.6494 54.9741 18.7741Z" fill="#15151A"/>
<path d="M57.6453 17.8866C57.4554 18.1903 57.0555 18.2798 56.7509 18.087C56.4501 17.8961 56.3577 17.4972 56.5505 17.1926C56.7414 16.8917 57.1403 16.7994 57.4449 16.9922C57.7486 17.1821 57.8381 17.582 57.6453 17.8866Z" fill="#E95135"/>
<path d="M57.3257 17.6765C57.2457 17.8012 57.083 17.8385 56.9583 17.7585C56.8346 17.6814 56.7963 17.5159 56.8763 17.3912C56.9535 17.2674 57.119 17.2292 57.2437 17.3092C57.3674 17.3863 57.4057 17.5518 57.3257 17.6765Z" fill="#15151A"/>
<path d="M59.9959 16.7967C59.805 17.0976 59.4061 17.1899 59.1015 16.9971C58.8007 16.8063 58.7083 16.4074 58.9011 16.1027C59.092 15.8019 59.4909 15.7096 59.7955 15.9023C60.0963 16.0932 60.1887 16.4921 59.9959 16.7967Z" fill="#E95135"/>
<path d="M59.6792 16.5838C59.6021 16.7075 59.4366 16.7458 59.3119 16.6658C59.1881 16.5887 59.1499 16.4232 59.2308 16.3013C59.308 16.1776 59.4734 16.1393 59.5981 16.2193C59.7219 16.2964 59.7602 16.4619 59.6802 16.5866L59.6792 16.5838Z" fill="#15151A"/>
<path d="M13.338 48.1276L16.041 51.6246C16.1168 51.7226 16.0989 51.8624 16.0009 51.9382L14.1078 53.4015C14.0098 53.4772 13.8699 53.4593 13.7942 53.3613L11.093 49.8667C11.0172 49.7687 11.0352 49.6289 11.1332 49.5531L13.0262 48.0898C13.1242 48.0141 13.2641 48.032 13.3398 48.13L13.338 48.1276Z" fill="#E95135"/>
<path d="M11.7993 50.3705L11.6997 50.241L12.5402 49.5942L50.0773 21.2702L52.4113 20.0872L52.484 20.2318L50.1635 21.4073L12.6398 49.7237L11.7993 50.3705Z" fill="white"/>
<path d="M12.3937 51.1357L12.2941 51.0061L13.1337 50.3564C27.7028 39.1832 35.8712 32.9188 50.4403 21.7455L54.7036 18.9397L54.7927 19.0758L50.5341 21.8769L13.2333 50.486L12.3937 51.1357Z" fill="white"/>
<path d="M13.6052 52.7069L13.5056 52.5774L14.3452 51.9276L51.1595 22.6767L59.6339 16.6817L59.7278 16.8131L51.2562 22.8072L14.4448 52.0572L13.6052 52.7069Z" fill="white"/>
<path d="M12.9961 51.9183L12.8966 51.7888L13.7362 51.1391L50.8151 22.2307L57.0513 17.8959L57.1432 18.0311L50.9089 22.3621L13.8386 51.2677L12.9961 51.9183Z" fill="white"/>
</svg>
