<svg width="73" height="72" viewBox="0 0 73 72" fill="none" xmlns="http://www.w3.org/2000/svg">
<g clip-path="url(#clip0_1950_27492)">
<path d="M11.2085 44.1061L11.2246 48.8509L8.32277 51.7643L8.34541 51.786L9.08816 51.7976L11.5872 49.2958L11.5722 44.1195L11.2085 44.1061Z" fill="white"/>
<path d="M54.3928 40.2318L54.3927 22.5811L53.723 22.6064L53.7802 40.2318L45.7983 51.8144L45.8232 51.8405L46.3196 51.849L52.9039 42.0144L53.5768 42.0154L55.2745 42.0244L61.9109 51.9817L62.4106 51.9912L62.4318 51.9687L54.3928 40.2318Z" fill="white"/>
<path d="M57.4471 18.8128C57.3479 17.9941 55.9111 18.0075 54.1586 17.9907C52.4027 17.9728 50.9699 17.9366 50.8718 18.7514C48.04 19.0381 46.0651 19.053 46.0686 19.878L62.2567 20.0292C62.2555 19.2086 60.2795 19.1543 57.4461 18.8162L57.4471 18.8128Z" fill="#E95135"/>
<path d="M57.4473 21.8068C57.3524 22.6226 55.9163 22.5854 54.1637 22.5686C52.4079 22.5507 50.9744 22.5651 50.8753 21.7464C48.0418 21.4083 46.0658 21.354 46.0647 20.5334L62.2538 20.6813C62.254 21.5052 60.279 21.5202 57.4506 21.8079L57.4473 21.8068Z" fill="#E95135"/>
<path d="M46.5207 37.5506L50.9929 32.1478L50.199 32.1328L47.556 35.7718L46.6918 36.6674L46.0221 36.6674L45.19 35.7628L42.5275 32.0725L41.737 32.0586L46.0221 37.5506L46.0221 45.0703L40.2709 51.8209L40.2924 51.8459L41.0293 51.8575L46.0221 46.0424L46.6918 46.0424L51.806 51.9454L52.5429 51.957L52.5641 51.9344L46.6918 45.0703L46.5207 37.5506Z" fill="white"/>
<path fill-rule="evenodd" clip-rule="evenodd" d="M52.1008 26.7152L40.7704 26.612L40.783 31.2498L52.1134 31.353L52.1008 26.7152ZM52.7659 26.049L52.7822 32.0314L40.1178 31.916L40.1016 25.9336L52.7659 26.049Z" fill="#FF826B"/>
<path d="M26.9372 27.2471L11.1406 27.1016L11.1874 44.4222L26.9839 44.5678L26.9372 27.2471Z" fill="#15151A"/>
<path fill-rule="evenodd" clip-rule="evenodd" d="M26.272 27.9133L11.8094 27.78L11.8525 43.756L26.3151 43.8893L26.272 27.9133ZM26.9372 27.2471L26.9839 44.5678L11.1874 44.4222L11.1406 27.1016L26.9372 27.2471Z" fill="#FF826B"/>
<path d="M34.7358 23.7647L33.0591 23.7494L33.0591 24.6153L33.6344 24.6153L33.6344 29.9724L34.3041 29.9724L34.3041 24.6153L34.7358 24.6153L34.7358 23.7647Z" fill="white"/>
<path fill-rule="evenodd" clip-rule="evenodd" d="M43.6609 22.5038L35.0737 22.4251L35.0836 26.0808L43.6708 26.1594L43.6609 22.5038ZM43.9935 22.1707L44.0052 26.4986L34.751 26.4139L34.7393 22.0859L43.9935 22.1707Z" fill="white"/>
<path fill-rule="evenodd" clip-rule="evenodd" d="M32.7376 22.4649L24.1498 22.3861L24.1632 27.3214L32.7509 27.4002L32.7376 22.4649ZM33.0702 22.1318L33.0853 27.7394L23.8306 27.6545L23.8154 22.0469L33.0702 22.1318Z" fill="white"/>
<path d="M24.6528 51.8458L29.1548 47.3219L29.0946 46.5808L23.8939 51.8092L23.9164 51.8309L24.6528 51.8458Z" fill="white"/>
<path d="M39.8805 47.9789L39.1026 47.9638L42.9799 51.9067L43.7109 51.9216L43.733 51.8958L39.8805 47.9789Z" fill="white"/>
<path d="M33.8344 29.7587C27.8744 29.7035 23.0554 34.5461 23.0714 40.5747C23.0874 46.6034 27.932 51.5358 33.892 51.5909C39.852 51.6461 44.6711 46.8035 44.6518 40.7738C44.6358 34.7452 39.7901 29.8161 33.8301 29.761L33.8344 29.7587ZM37.9225 46.9416C37.1102 46.9341 36.4482 46.2624 36.447 45.4374C36.4448 44.6159 37.1011 43.9541 37.9166 43.9626C38.7289 43.9702 39.3909 44.6419 39.3954 45.4679C39.3976 46.2894 38.738 46.9502 37.9258 46.9427L37.9225 46.9416Z" fill="#FF6043"/>
<path d="M33.836 30.5207C28.2947 30.4696 23.8117 34.9728 23.8268 40.578C23.8409 46.1864 28.3471 50.7715 33.8917 50.8237C39.433 50.8748 43.916 46.3715 43.9019 40.763C43.8868 35.1579 39.3816 30.5695 33.8403 30.5184L33.836 30.5207ZM37.9226 46.9407C37.1104 46.9331 36.4483 46.2614 36.4471 45.4365C36.445 44.6149 37.1012 43.9531 37.9168 43.9617C38.729 43.9692 39.391 44.6409 39.3955 45.4669C39.3977 46.2885 38.7381 46.9492 37.9259 46.9417L37.9226 46.9407Z" fill="#15151A"/>
<path d="M37.87 43.3664C36.7331 43.3552 35.8149 44.2775 35.8172 45.4275C35.8196 46.5775 36.7423 47.5174 37.8792 47.5286C39.0162 47.5398 39.9344 46.6175 39.932 45.4675C39.9296 44.3175 39.0069 43.3776 37.87 43.3664ZM37.8808 46.938C37.0686 46.9305 36.4066 46.2588 36.4054 45.4339C36.4032 44.6123 37.0595 43.9505 37.875 43.9591C38.6873 43.9666 39.3493 44.6383 39.3538 45.4643C39.356 46.2859 38.6964 46.9466 37.8842 46.9391L37.8808 46.938Z" fill="white"/>
<path d="M23.0658 15.2286L6.79102 31.6914L7.51788 32.314L23.2545 15.9077L23.0658 15.2286Z" fill="white"/>
<path d="M26.463 15.1846C26.3638 14.3661 24.9272 14.3794 23.1747 14.3626C21.4223 14.3458 19.9863 14.3086 19.8914 15.1242C17.0599 15.4108 12.6951 15.4047 12.6986 16.2295L33.6622 16.4217C33.661 15.6013 29.2953 15.5259 26.463 15.1846Z" fill="#E95135"/>
</g>
<defs>
<clipPath id="clip0_1950_27492">
<rect width="58.9286" height="46.875" fill="white" transform="translate(6.84863 12.5625)"/>
</clipPath>
</defs>
</svg>
