<svg width="73" height="72" viewBox="0 0 73 72" fill="none" xmlns="http://www.w3.org/2000/svg">
<path fill-rule="evenodd" clip-rule="evenodd" d="M42.6077 52.335H42.6109C42.6136 52.0563 42.6157 51.7907 42.6176 51.5369C42.6387 48.8114 42.6493 47.4488 43.3335 45.9934C43.5871 45.4549 43.9975 44.8727 44.4323 44.2558C45.2797 43.0536 46.2201 41.7195 46.2745 40.3205C46.3569 38.2034 45.6122 37.0371 40.3196 34.5461C35.027 32.0551 33.6547 32.2231 32.0732 33.6334C31.0282 34.5654 30.599 36.1409 30.2122 37.5606C30.0137 38.2893 29.8264 38.9769 29.5727 39.5155C28.8887 40.9676 27.8441 41.8445 25.7578 43.596C25.5629 43.7596 25.3589 43.9308 25.1453 44.1108C22.6448 46.2184 20.9746 48.5002 21.0982 51.793C21.2187 55.0827 23.6399 57.149 28.5776 59.4752C33.5184 61.8014 36.6496 62.3529 39.2642 60.3499C41.8788 58.3502 42.576 55.6056 42.6077 52.335ZM28.8245 58.9507C31.2804 60.107 33.226 60.7915 34.8527 60.9593C36.4489 61.1241 37.734 60.7918 38.9116 59.8897L38.912 59.8895C41.3211 58.0468 41.9971 55.5208 42.028 52.3294L42.0336 51.7552H42.036C42.0367 51.6656 42.0373 51.5773 42.0379 51.4902C42.0571 48.8212 42.0679 47.3229 42.8088 45.7467L42.809 45.7463C43.0177 45.3033 43.3134 44.8494 43.6199 44.4055C43.7352 44.2384 43.8509 44.0743 43.9664 43.9105C44.1688 43.6234 44.3708 43.337 44.57 43.0357C45.1949 42.0904 45.6607 41.1849 45.6952 40.2979C45.7145 39.8019 45.683 39.4067 45.5703 39.0501C45.4598 38.7005 45.2605 38.3542 44.8956 37.9762C44.14 37.1934 42.721 36.3171 40.0727 35.0707C37.4243 33.8242 35.8449 33.2888 34.76 33.2048C34.2359 33.1642 33.8419 33.2309 33.5017 33.3683C33.1548 33.5084 32.8297 33.7356 32.4591 34.0661C31.7969 34.6566 31.3955 35.5924 31.065 36.6769C30.9596 37.0225 30.8676 37.3607 30.7753 37.6996C30.7225 37.8932 30.6698 38.0871 30.6144 38.2827C30.4674 38.802 30.3059 39.3194 30.0972 39.7625C29.3562 41.3355 28.2069 42.2992 26.163 44.0131C25.9575 44.1854 25.743 44.3653 25.5189 44.5541C23.079 46.6106 21.5637 48.7369 21.6776 51.7713L21.6776 51.7718C21.7318 53.2532 22.2944 54.4561 23.4382 55.5823C24.6038 56.73 26.3704 57.7946 28.8245 58.9507Z" fill="white"/>
<path d="M38.3163 38.8047C36.8077 38.0948 35.0044 38.7445 34.2945 40.2499C33.5846 41.7585 34.2343 43.5649 35.7397 44.2748C37.2482 44.9847 39.0515 44.335 39.7614 42.8265C40.4713 41.3179 39.8248 39.5146 38.3163 38.8047ZM35.7999 44.1481C34.3611 43.4698 33.7431 41.749 34.4213 40.3101C35.0995 38.8713 36.8204 38.2533 38.2592 38.9283C39.698 39.6066 40.3192 41.3274 39.641 42.7663C38.9628 44.2051 37.2419 44.8231 35.8031 44.1481H35.7999ZM38.6554 38.0822C36.7507 37.1853 34.4688 38.0061 33.5719 39.9108C32.675 41.8155 33.4927 44.0973 35.4006 44.9942C37.3053 45.8911 39.5871 45.0703 40.484 43.1656C41.3809 41.2609 40.5601 38.979 38.6554 38.0822ZM35.4576 44.8675C33.6195 44.0023 32.8303 41.806 33.6955 39.9678C34.5607 38.1329 36.757 37.3406 38.5952 38.2058C40.4333 39.071 41.2224 41.2704 40.3572 43.1054C39.492 44.9435 37.2958 45.7327 35.4576 44.8675ZM38.5159 38.3737C36.7729 37.5529 34.6843 38.304 33.8635 40.0471C33.0427 41.7902 33.7938 43.8787 35.5369 44.6995C37.2799 45.5203 39.3684 44.7692 40.1893 43.0261C41.0101 41.2831 40.259 39.1946 38.5159 38.3737ZM35.6541 44.4491C34.0473 43.6917 33.3564 41.7711 34.1139 40.1643C34.8713 38.5575 36.7919 37.8667 38.3987 38.6241C40.0055 39.3815 40.6963 41.3021 39.9389 42.9089C39.1815 44.5157 37.2609 45.2066 35.6541 44.4491Z" fill="#FF826B"/>
<path d="M42.1647 45.6747C42.7637 43.1266 41.9461 40.4106 40.1871 40.043C40.6182 40.9557 40.6562 42.0459 40.1935 43.0284C39.6199 44.2422 38.4346 44.9743 37.1796 45.0282C36.4221 46.2673 35.503 47.6713 36.4475 48.7298C37.4204 49.82 39.3029 50.2479 40.0826 49.9373C40.8622 49.6267 41.5531 48.2925 42.1679 45.6747H42.1647Z" fill="#E95135"/>
<path d="M29.9115 46.7945L29.3981 47.8879C29.3664 47.9544 29.3981 48.0368 29.4647 48.0717C30.8401 48.7594 30.3267 49.2253 31.4993 49.7799L34.1931 51.0508C35.3658 51.6022 35.3975 50.9082 36.8046 51.5325C36.8743 51.5642 36.9567 51.5325 36.9884 51.4659L37.5018 50.3726C37.5335 50.3028 37.5018 50.2204 37.4353 50.1887L30.0953 46.7311C30.0256 46.6994 29.9432 46.7311 29.9115 46.7977V46.7945Z" fill="#E95135"/>
<path d="M36.6396 38.3422L39.736 39.8L49.5574 17.8405L47.3168 16.7852L36.6396 38.3422Z" fill="#15151A"/>
<path d="M43.5047 24.4822L43.5871 24.3174L46.1257 25.5122L46.0496 25.6833L43.5047 24.4853V24.4822ZM45.4696 26.9795L45.5457 26.8115L42.9564 25.5914L42.874 25.7562L45.4696 26.9795ZM44.9119 28.225L44.9879 28.0539L42.348 26.8115L42.2656 26.9763L44.9119 28.2218V28.225ZM44.3858 29.3976L44.4618 29.2297L41.7775 27.9651L41.6951 28.1299L44.3858 29.3976ZM43.8945 30.5005L43.9706 30.3294L41.2451 29.0458L41.1627 29.2106L43.8945 30.4973V30.5005ZM46.6676 24.3015L46.7437 24.1335L44.259 22.9641L44.1766 23.1289L46.6676 24.3015ZM43.4223 31.559L43.4984 31.3911L40.7316 30.0853L40.6492 30.2533L43.4223 31.559ZM48.0177 21.2844L48.0937 21.1165L45.7263 20.0009L45.6439 20.1657L48.0177 21.2844ZM46.5028 18.4258L46.4204 18.5906L48.7339 19.6808L48.81 19.5128L46.5028 18.4258ZM47.3205 22.8373L47.3965 22.6662L44.9689 21.5221L44.8865 21.6869L47.3205 22.8342V22.8373ZM40.7665 37.4918L40.8426 37.3239L37.8445 35.9104L37.7621 36.0752L40.7665 37.4918ZM40.1865 38.7912L40.2626 38.6201L37.2138 37.1844L37.1314 37.3492L40.1865 38.788V38.7912ZM40.4718 38.1574L40.5478 37.9894L37.5244 36.5632L37.442 36.728L40.4749 38.1574H40.4718ZM39.9203 39.387L39.9964 39.219L36.9222 37.7707L36.8398 37.9355L39.9203 39.387ZM41.0929 36.7661L41.169 36.5981L38.1994 35.1973L38.117 35.3653L41.0929 36.7661ZM42.1578 34.386L42.2339 34.2148L39.3562 32.8584L39.2738 33.0264L42.1578 34.386ZM42.985 32.5352L43.061 32.3672L40.2563 31.0456L40.1739 31.2104L42.985 32.5352ZM42.5603 33.4891L42.6364 33.318L39.7936 31.9805L39.7112 32.1453L42.5603 33.4891ZM41.7807 35.2353L41.8567 35.0674L38.9474 33.6951L38.865 33.8599L41.7838 35.2353H41.7807ZM41.4289 36.0245L41.5049 35.8565L38.5639 34.4716L38.4815 34.6364L41.4289 36.0245Z" fill="#FCEDE9"/>
<path d="M48.151 11.6355C48.0464 11.8605 48.0844 12.114 48.2334 12.2947C48.3221 12.4024 48.4933 12.3707 48.5535 12.2471L48.8799 11.5531C48.9401 11.4295 48.8514 11.2773 48.7119 11.2773C48.4806 11.2773 48.2587 11.4105 48.151 11.6355Z" fill="#FF826B"/>
<path d="M47.567 13.1902C47.4624 13.4152 47.5004 13.6687 47.6494 13.8494C47.735 13.9571 47.9093 13.9254 47.9695 13.8018L48.2959 13.1078C48.3561 12.9842 48.2674 12.832 48.128 12.832C47.8966 12.832 47.6748 12.9651 47.567 13.1902Z" fill="#FF826B"/>
<path d="M47.0611 14.7605C46.9566 14.9855 46.9946 15.239 47.1435 15.4197C47.2291 15.5274 47.4034 15.4989 47.4636 15.3721L47.7901 14.6781C47.8503 14.5545 47.7615 14.4023 47.6221 14.4023C47.3907 14.4023 47.1689 14.5355 47.0611 14.7605Z" fill="#FF826B"/>
<path d="M52.9994 13.92C52.8948 14.145 52.673 14.275 52.4385 14.2781C52.3022 14.2781 52.2134 14.126 52.2705 14.0024L52.5969 13.3084C52.6571 13.1848 52.8283 13.1531 52.917 13.2608C53.0628 13.4415 53.104 13.695 52.9962 13.92H52.9994Z" fill="#FF826B"/>
<path d="M52.1697 15.3575C52.0651 15.5825 51.8401 15.7125 51.6087 15.7156C51.4693 15.7156 51.3837 15.5635 51.4408 15.4399L51.7672 14.7459C51.8274 14.6223 51.9985 14.5906 52.0873 14.6983C52.2331 14.879 52.2743 15.1325 52.1665 15.3575H52.1697Z" fill="#FF826B"/>
<path d="M51.2816 16.7481C51.1771 16.9732 50.9552 17.1031 50.7207 17.1063C50.5844 17.1063 50.4957 16.9541 50.5527 16.8305L50.8791 16.1365C50.9394 16.0129 51.1105 15.9812 51.1992 16.0889C51.345 16.2696 51.3862 16.5231 51.2816 16.7481Z" fill="#FF826B"/>
<path fill-rule="evenodd" clip-rule="evenodd" d="M52.7791 11.9569C52.7841 11.9481 52.7801 11.938 52.7723 11.9344L52.7693 11.933L49.8271 10.5443C49.8237 10.5427 49.8214 10.5423 49.8197 10.5423C49.8178 10.5423 49.8157 10.5426 49.8135 10.5435C49.8094 10.5451 49.8062 10.548 49.8042 10.5533L47.9377 15.3607C47.889 15.491 47.8803 15.5939 47.9033 15.6631L47.9038 15.6644C47.9617 15.8414 47.9131 16.0381 47.8703 16.17C47.8532 16.2228 47.8334 16.2754 47.8129 16.3258L49.5975 17.1664C49.6232 17.1183 49.6512 17.0694 49.681 17.0224C49.7555 16.9053 49.8767 16.7414 50.0515 16.674L50.0538 16.6731C50.1241 16.6468 50.196 16.5774 50.2616 16.4594L52.7791 11.9569ZM49.7402 17.4556C49.7319 17.4732 49.7239 17.4902 49.7163 17.5065C49.7163 17.5065 49.7163 17.5064 49.7163 17.5065L47.4756 16.4512C47.5707 16.2484 47.7196 15.9283 47.6594 15.7444C47.6087 15.5923 47.6404 15.4212 47.6974 15.2691L49.5641 10.4613C49.6211 10.3123 49.7923 10.2426 49.9381 10.3123L52.8791 11.7005C53.0249 11.767 53.0819 11.9445 53.0027 12.0839L50.4863 16.5843C50.4071 16.7269 50.2962 16.8569 50.1441 16.9139C49.9779 16.978 49.8359 17.2539 49.7402 17.4556Z" fill="white"/>
<path d="M48.902 15.2915C48.8038 15.4975 48.5598 15.5862 48.3538 15.488C48.1478 15.3897 48.059 15.1457 48.1573 14.9397C48.2555 14.7337 48.4995 14.645 48.7055 14.7432C48.9115 14.8415 49.0003 15.0855 48.902 15.2915Z" fill="#FCEDE9"/>
<path d="M49.6025 13.6495C49.5042 13.8555 49.257 13.9474 49.051 13.8492C48.845 13.7509 48.7563 13.5037 48.8545 13.2978C48.9528 13.0918 49.2 12.9998 49.406 13.0981C49.6151 13.1963 49.7039 13.4435 49.6056 13.6495H49.6025Z" fill="#FCEDE9"/>
<path d="M50.2994 12.0087C50.2011 12.2147 49.9539 12.3034 49.7479 12.2052C49.5419 12.1069 49.45 11.8597 49.5483 11.6537C49.6465 11.4446 49.8937 11.3558 50.0997 11.4541C50.3057 11.5523 50.3976 11.7995 50.2994 12.0055V12.0087Z" fill="#FCEDE9"/>
<path d="M48.6742 15.1848C48.6361 15.2672 48.5379 15.3021 48.4586 15.264C48.3762 15.226 48.3414 15.1278 48.3826 15.0485C48.4206 14.9693 48.5157 14.9344 48.5981 14.9725C48.6773 15.0105 48.7154 15.1087 48.6773 15.188L48.6742 15.1848Z" fill="#15151A"/>
<path d="M49.3704 13.5434C49.3324 13.6258 49.2342 13.6606 49.1549 13.6226C49.0725 13.5846 49.0377 13.4863 49.0789 13.4071C49.1169 13.3247 49.212 13.2898 49.2944 13.3279C49.3768 13.3659 49.4116 13.4641 49.3736 13.5434H49.3704Z" fill="#15151A"/>
<path d="M50.0711 11.902C50.0331 11.9844 49.9348 12.0193 49.8524 11.9812C49.77 11.9432 49.7351 11.845 49.7732 11.7626C49.8112 11.6802 49.9095 11.6453 49.9919 11.6833C50.0743 11.7214 50.1091 11.8196 50.0711 11.902Z" fill="#15151A"/>
<path d="M50.446 16.022C50.3477 16.228 50.1037 16.3167 49.8977 16.2184C49.6917 16.1202 49.603 15.8762 49.7012 15.6702C49.7963 15.4642 50.0435 15.3754 50.2495 15.4737C50.4555 15.5719 50.5442 15.816 50.446 16.022Z" fill="#FCEDE9"/>
<path d="M51.2692 14.436C51.171 14.642 50.9269 14.7308 50.7209 14.6325C50.5149 14.5343 50.4262 14.2902 50.5245 14.0842C50.6227 13.8782 50.8667 13.7895 51.0727 13.8877C51.2787 13.986 51.3675 14.23 51.2692 14.436Z" fill="#FCEDE9"/>
<path d="M52.0934 12.8501C51.9952 13.0561 51.7512 13.1448 51.5452 13.0466C51.3392 12.9483 51.2504 12.7043 51.3487 12.4983C51.4469 12.2923 51.691 12.2036 51.897 12.3018C52.1029 12.4 52.1917 12.6441 52.0934 12.8501Z" fill="#FCEDE9"/>
<path d="M50.2258 15.9181C50.1846 16.0036 50.0864 16.0385 50.0008 15.9973C49.9152 15.9561 49.8804 15.8579 49.9216 15.7723C49.9596 15.6867 50.061 15.6519 50.1466 15.6931C50.2322 15.7343 50.267 15.8325 50.229 15.9181H50.2258Z" fill="#15151A"/>
<path d="M51.0505 14.336C51.0093 14.4216 50.911 14.4565 50.8255 14.4153C50.7431 14.3772 50.705 14.2758 50.7462 14.1903C50.7874 14.1047 50.8857 14.0698 50.9712 14.111C51.0568 14.1522 51.0917 14.2505 51.0536 14.336H51.0505Z" fill="#15151A"/>
<path d="M51.8747 12.7423C51.8367 12.8279 51.7353 12.8627 51.6497 12.8215C51.5673 12.7835 51.5293 12.6821 51.5705 12.5965C51.6117 12.5109 51.7099 12.4761 51.7955 12.5173C51.881 12.5553 51.9159 12.6567 51.8747 12.7423Z" fill="#15151A"/>
<path d="M31.7943 48.892C31.7943 48.892 31.7722 48.8699 31.7817 48.854L32.1746 48.0173L47.6817 16.5533L48.5373 15.3648C48.5373 15.3648 48.5659 15.349 48.5785 15.3585C48.5912 15.368 48.5944 15.387 48.5849 15.3965L47.7324 16.5818L32.2254 48.0427L31.8324 48.8794C31.8324 48.8794 31.8102 48.8984 31.7943 48.892Z" fill="#FCEDE9"/>
<path d="M32.3743 49.162C32.3743 49.162 32.3553 49.1398 32.3616 49.1239L32.7546 48.2873L48.0398 16.7186L49.3582 13.6889C49.3582 13.6889 49.3804 13.6667 49.3962 13.673C49.3962 13.673 49.4152 13.6952 49.4089 13.711L48.0905 16.7408L32.8053 48.3126L32.4124 49.1493C32.4124 49.1493 32.3902 49.1683 32.3743 49.162Z" fill="#FCEDE9"/>
<path d="M32.9544 49.4363C32.9544 49.4363 32.9354 49.4141 32.9417 49.3982L33.3347 48.5616L48.3885 16.882L50.1474 11.9412C50.1474 11.9412 50.1696 11.919 50.1855 11.9222C50.2045 11.9285 50.2076 11.9444 50.2013 11.9602L48.4392 16.9042L33.3854 48.5901L32.9924 49.4268C32.9924 49.4268 32.9702 49.4458 32.9544 49.4394V49.4363Z" fill="#FCEDE9"/>
<path d="M34.6937 50.2586C34.6937 50.2586 34.6746 50.2364 34.681 50.2205L35.074 49.3839L49.4527 17.3874L49.8204 15.9803C49.8204 15.9803 49.8394 15.9581 49.8552 15.9612C49.8679 15.9612 49.8806 15.9803 49.8742 15.9961L49.5034 17.4064L35.1247 49.4092L34.7317 50.2459C34.7317 50.2459 34.7095 50.2649 34.6937 50.2586Z" fill="#FCEDE9"/>
<path d="M34.1146 49.9857C34.1146 49.9857 34.0955 49.9636 34.1019 49.9477L34.4949 49.111L49.0955 17.2192L50.5945 14.2718C50.5945 14.2718 50.6199 14.2528 50.6325 14.2591C50.6452 14.2654 50.6516 14.2845 50.6452 14.2971L49.1462 17.2445L34.5456 49.1364L34.1526 49.9731C34.1526 49.9731 34.1304 49.9921 34.1146 49.9857Z" fill="#FCEDE9"/>
<path d="M33.5345 49.7081C33.5345 49.7081 33.5155 49.686 33.5218 49.6701L33.9148 48.8334L48.7499 17.0493L51.4406 12.5395C51.4406 12.5395 51.4628 12.5205 51.4786 12.53C51.4913 12.5395 51.4976 12.5554 51.4881 12.568L48.7974 17.0747L33.9623 48.8588L33.5693 49.6955C33.5693 49.6955 33.5472 49.7145 33.5313 49.7081H33.5345Z" fill="#FCEDE9"/>
</svg>
