<svg width="67" height="65" viewBox="0 0 67 65" fill="none" xmlns="http://www.w3.org/2000/svg">
<path fill-rule="evenodd" clip-rule="evenodd" d="M56.9368 8.98765C56.9386 8.98655 56.9404 8.98546 56.9422 8.98436C57.1534 8.85665 57.3792 8.77376 57.6085 8.733C58.3747 8.59684 59.1804 8.93096 59.6106 9.63522L65.9248 19.9767C66.4853 20.8942 64.8486 22.7657 63.931 23.3262L10.2084 56.2712C9.29086 56.8317 8.09309 56.5424 7.53263 55.6249L1.21837 45.2834C0.657909 44.3659 0.94718 43.1681 1.86471 42.6077L56.9348 8.98436V8.98888L56.9368 8.98765ZM56.2611 10.1851L2.21591 43.1826C1.61596 43.5491 1.42678 44.3322 1.79332 44.9322L8.10757 55.2737C8.47407 55.8735 9.25718 56.0628 9.85719 55.6963L63.5798 22.7512C64.1798 22.3847 65.7164 20.9279 65.3499 20.3279L59.0356 9.98642C58.6691 9.38656 57.886 9.19731 57.286 9.56382L56.2611 10.1899V10.1851Z" fill="#E95135"/>
<path fill-rule="evenodd" clip-rule="evenodd" d="M14.4322 41.7597C14.3672 41.6524 14.2244 41.6173 14.1155 41.6832L13.5486 42.0286L17.1218 47.8761C17.2007 48.0077 17.1575 48.1807 17.0261 48.2598M17.0261 48.2598L16.767 48.4158L18.4773 51.22C18.5422 51.3272 18.685 51.3627 18.7938 51.2971M18.8639 51.4122C18.6922 51.5162 18.4662 51.4619 18.3622 51.2902L16.5814 48.3704L16.9565 48.1443C17.0243 48.1037 17.0469 48.0133 17.0063 47.9455L13.3633 41.9838L14.0458 41.5679C14.2175 41.464 14.4435 41.5182 14.5475 41.69L19.8538 50.3817C19.9577 50.5534 19.9035 50.7794 19.7317 50.8834L18.8639 51.4122ZM18.7938 51.2971L19.6616 50.7683C19.7688 50.7034 19.8043 50.5606 19.7387 50.4518L14.4322 41.7597M14.3568 49.893L14.2914 49.9322C14.1656 50.0077 13.9891 49.9782 13.9071 49.8354L10.3398 43.9904L9.77227 44.3362C9.66495 44.4011 9.62953 44.5441 9.69535 44.653L15.0015 53.3443C15.0664 53.4516 15.2095 53.4872 15.3184 53.4213L16.1859 52.8927C16.2931 52.8277 16.3286 52.6848 16.2629 52.576L14.5519 49.7708L14.3568 49.8883V49.893ZM14.5972 49.5862L16.378 52.506C16.482 52.6778 16.4277 52.9038 16.256 53.0077L15.3882 53.5366C15.2164 53.6405 14.9904 53.5863 14.8864 53.4145L9.58012 44.7228C9.47617 44.5511 9.5304 44.3251 9.70216 44.2211L10.3846 43.8053L14.0232 49.767C14.0638 49.8393 14.1542 49.8574 14.222 49.8167V49.8122L14.5972 49.5862ZM16.0969 48.8308L16.0315 48.8701C15.9001 48.9489 15.7272 48.9059 15.6481 48.7747L12.0799 42.9282L11.8129 43.0909L15.3817 48.9383C15.4572 49.0642 15.4276 49.2408 15.2845 49.3228L15.0268 49.478L16.7371 52.2822C16.8021 52.3895 16.9452 52.425 17.054 52.3591L17.9215 51.8305C18.0288 51.7656 18.0642 51.6227 17.9985 51.5138L16.2879 48.7092L16.0969 48.8257V48.8308ZM15.9622 48.75V48.7545C15.8944 48.7952 15.804 48.7726 15.7633 48.7048L12.1248 42.7431L11.6276 43.0459L15.2661 49.0076C15.3068 49.0754 15.2887 49.1658 15.2164 49.2065L14.8412 49.4325L16.6221 52.3523C16.726 52.5241 16.952 52.5783 17.1238 52.4744L17.9916 51.9456C18.1634 51.8416 18.2176 51.6156 18.1136 51.4439L16.3328 48.524L15.9622 48.75ZM19.526 46.7372L19.5118 46.7457C19.3803 46.8246 19.2074 46.7815 19.1283 46.6502L15.5602 40.8039L14.9927 41.1497C14.8854 41.2146 14.85 41.3576 14.9158 41.4664L20.2219 50.1578C20.2869 50.2651 20.43 50.3007 20.5388 50.2348L21.4063 49.7062C21.5136 49.6412 21.549 49.4982 21.4832 49.3894L19.7727 46.5849L19.5309 46.7323L19.526 46.7372ZM19.447 46.6257L19.8176 46.3997L21.5985 49.3195C21.7024 49.4913 21.6482 49.7173 21.4764 49.8212L20.6086 50.35C20.4368 50.454 20.2109 50.3998 20.1069 50.228L14.8006 41.5363C14.6966 41.3645 14.7509 41.1386 14.9226 41.0346L15.6051 40.6188L19.2436 46.5805C19.2843 46.6483 19.3747 46.6709 19.4425 46.6302L19.447 46.6257ZM21.5081 37.4413C21.4041 37.2695 21.1781 37.2153 21.0063 37.3193L20.324 37.735L23.9623 43.6968C24.003 43.7646 23.9849 43.855 23.9126 43.8957L23.542 44.1217L25.3228 47.0415C25.4268 47.2133 25.6528 47.2675 25.8245 47.1635L26.6923 46.6347C26.8641 46.5308 26.9183 46.3048 26.8144 46.133L21.5081 37.4413ZM26.6991 46.2028L21.393 37.5115C21.3281 37.4042 21.185 37.3687 21.0761 37.4345L20.5091 37.78L24.0779 43.6275C24.1533 43.7532 24.1239 43.9297 23.9811 44.0117L23.7272 44.1666L25.4379 46.9713C25.5028 47.0786 25.6458 47.1141 25.7546 47.0484L26.6222 46.5196C26.7295 46.4547 26.7648 46.3116 26.6991 46.2028ZM23.0063 44.6129L22.9921 44.6214C22.8607 44.7003 22.6878 44.6572 22.6087 44.526L19.0405 38.6795L18.7735 38.8422L22.3423 44.6896C22.4211 44.821 22.3781 44.9937 22.2471 45.0729M22.2463 45.0734L21.9916 45.2287L23.7022 48.0335C23.7672 48.1408 23.9103 48.1763 24.0191 48.1104L24.8866 47.5818C24.9938 47.5169 25.0293 47.3741 24.9637 47.2653L23.253 44.4605L23.0112 44.608L23.0063 44.6129M22.9273 44.5013L22.9228 44.5059C22.855 44.5465 22.7646 44.5239 22.7239 44.4561L19.0856 38.4948L18.5882 38.7973L22.2267 44.759C22.2674 44.8268 22.2448 44.9172 22.177 44.9578L21.8064 45.1838L23.5872 48.1037C23.6912 48.2754 23.9171 48.3297 24.0889 48.2257L24.9567 47.6969C25.1285 47.5929 25.1827 47.3669 25.0787 47.1952L23.2979 44.2753L22.9273 44.5013ZM21.8516 49.1658C21.9555 49.3376 22.1815 49.3918 22.3533 49.2879L23.2211 48.759C23.3928 48.6551 23.4471 48.4291 23.3431 48.2573L21.5623 45.3375L21.1917 45.5635L21.1826 45.568C21.1148 45.6087 21.0244 45.5861 20.9838 45.5183L17.3453 39.5566L16.8481 39.8594L20.4911 45.8211C20.5318 45.8889 20.5092 45.9793 20.4414 46.02L20.0707 46.246L21.8516 49.1658ZM20.2559 46.2909L21.9666 49.0957C22.0316 49.203 22.1747 49.2385 22.2835 49.1726L23.151 48.644C23.2583 48.579 23.2937 48.4361 23.2279 48.3272L21.5174 45.5227L21.257 45.6815L21.2467 45.6866C21.116 45.7613 20.9466 45.7176 20.8685 45.5882L17.3004 39.7417L17.0334 39.9043L20.6066 45.7518C20.6855 45.8833 20.6424 46.0562 20.5111 46.1353L20.2559 46.2909ZM26.6087 34.3246C26.5438 34.2173 26.401 34.1822 26.2922 34.2479L25.725 34.5935L29.2938 40.441C29.3727 40.5724 29.3296 40.7454 29.1983 40.8244L28.9431 40.98L30.6538 43.7848C30.7187 43.8921 30.8617 43.9276 30.9705 43.8618L31.8382 43.3331C31.9454 43.2682 31.9808 43.1255 31.9153 43.0167L26.6087 34.3246ZM32.0303 42.9465C32.1343 43.1183 32.08 43.3442 31.9083 43.4482L31.0405 43.977C30.8687 44.081 30.6427 44.0267 30.5388 43.855L28.7579 40.9352L29.1286 40.7092C29.1964 40.6685 29.219 40.5781 29.1783 40.5103L25.5398 34.5486L26.2223 34.1328C26.394 34.0288 26.62 34.083 26.724 34.2548L32.0303 42.9465ZM26.5333 42.4578L26.4679 42.4971C26.3365 42.5759 26.1636 42.5329 26.0845 42.4017L22.5163 36.5552L21.9488 36.901C21.8416 36.9659 21.8061 37.1087 21.8717 37.2175L27.178 45.9091C27.2429 46.0165 27.3861 46.052 27.4949 45.9861L28.3624 45.4575C28.4696 45.3926 28.5051 45.2497 28.4394 45.1409L26.7284 42.3356L26.5333 42.4531V42.4578ZM26.7737 42.151L28.5545 45.0708C28.6585 45.2426 28.6042 45.4686 28.4325 45.5725L27.5647 46.1014C27.3929 46.2053 27.1669 46.1511 27.063 45.9793L21.7566 37.2876C21.6527 37.1159 21.7069 36.8899 21.8787 36.7859L22.5612 36.3701L26.1997 42.3318C26.2404 42.3996 26.3308 42.4222 26.3986 42.3815V42.377L26.7737 42.151ZM28.2222 41.4264L28.208 41.4349C28.0823 41.5103 27.9059 41.4809 27.8238 41.3381L24.2565 35.493L23.9894 35.6557L27.5582 41.5031C27.6371 41.6346 27.594 41.8075 27.4627 41.8866L27.2075 42.0422L28.9182 44.847C28.9831 44.9542 29.1259 44.9897 29.2347 44.9241M29.2347 44.9241L30.1025 44.3953C30.2098 44.3304 30.2453 44.1874 30.1795 44.0785L28.469 41.274L28.2271 41.4215L28.2222 41.4264M28.1432 41.3148L28.1387 41.3193C28.0709 41.36 27.9805 41.3419 27.9398 41.2696L24.3013 35.3079L23.8047 35.6104L27.4426 41.5725C27.4833 41.6403 27.4607 41.7307 27.3929 41.7713L27.0223 41.9973L28.8031 44.9172C28.9071 45.0889 29.1331 45.1432 29.3048 45.0392L30.1726 44.5104C30.3444 44.4064 30.3986 44.1804 30.2947 44.0087L28.5139 41.0888L28.1432 41.3148ZM31.7025 39.302L31.6883 39.3106C31.5568 39.3894 31.3839 39.3463 31.3048 39.215L27.7368 33.3687L27.1692 33.7145C27.062 33.7794 27.0266 33.9222 27.0922 34.0311L32.3984 42.7226C32.4634 42.83 32.6065 42.8655 32.7154 42.7996L33.5828 42.271C33.6901 42.2061 33.7255 42.0632 33.6599 41.9544L31.9493 39.1497L31.7074 39.2971L31.7025 39.302ZM31.6235 39.1905L31.619 39.195C31.5512 39.2357 31.4608 39.2131 31.4201 39.1453L27.7816 33.1836L27.0991 33.5994C26.9274 33.7034 26.8731 33.9294 26.9771 34.1011L32.2834 42.7928C32.3874 42.9646 32.6134 43.0188 32.7851 42.9149L33.6529 42.386C33.8247 42.2821 33.8789 42.0561 33.775 41.8843L31.9941 38.9645L31.6235 39.1905ZM33.2769 29.9846L32.6856 30.3448L36.2544 36.1923C36.3299 36.3181 36.3003 36.4948 36.1572 36.5768L35.8996 36.732L37.6099 39.5362C37.6748 39.6434 37.8178 39.6789 37.9266 39.6132L38.7942 39.0845C38.9016 39.0195 38.937 38.8764 38.8711 38.7676L33.5651 30.0763C33.5057 29.9782 33.381 29.94 33.2769 29.9846ZM33.4927 29.8531C33.3936 29.8175 33.2799 29.8245 33.1829 29.8814L33.1817 29.8821L33.1784 29.8841H33.1829L32.5004 30.2999L36.1389 36.2616C36.1795 36.3294 36.1615 36.4198 36.0891 36.4605L35.714 36.6865L37.4948 39.6063C37.5988 39.7781 37.8248 39.8323 37.9965 39.7284L38.8643 39.1995C39.0361 39.0956 39.0903 38.8696 38.9864 38.6978L33.6801 30.0061C33.6354 29.9324 33.5683 29.8803 33.4927 29.8531ZM35.3165 37.0975L35.1686 37.1862C35.0371 37.2651 34.8642 37.222 34.7851 37.0906L31.217 31.2444L30.95 31.407L34.5188 37.2545C34.5977 37.3861 34.5545 37.5592 34.4228 37.6382L34.164 37.7942L35.8742 40.5983C35.9391 40.7056 36.082 40.7411 36.1908 40.6755M36.1908 40.6755L37.0586 40.1466C37.1658 40.0817 37.2013 39.9389 37.1357 39.8301L35.4247 37.0247L35.3118 37.0927L35.3165 37.0975M35.4699 36.8402L37.2508 39.76C37.3547 39.9317 37.3005 40.1577 37.1287 40.2617L36.2609 40.7905C36.0892 40.8945 35.8632 40.8402 35.7592 40.6685L33.9784 37.7487L34.3535 37.5227C34.4213 37.482 34.4439 37.3916 34.4032 37.3238L30.7647 31.3621L31.2619 31.0592L34.9004 37.021C34.9012 37.0222 34.9019 37.0234 34.9027 37.0246C34.9406 37.0837 35.0173 37.1065 35.081 37.0799C35.0868 37.0775 35.0925 37.0747 35.098 37.0715L35.0993 37.0707L35.0948 37.0662L35.4699 36.8402ZM33.4939 38.2091L33.4285 38.2484C33.297 38.3272 33.1242 38.2842 33.0451 38.153L29.4769 32.3065L29.2099 32.4692L32.7786 38.3166C32.8576 38.4482 32.8143 38.6212 32.6829 38.7002M32.6829 38.7002L32.4238 38.8563L34.1341 41.6605C34.199 41.7678 34.342 41.8033 34.4508 41.7375L35.3185 41.2088C35.4257 41.1439 35.4611 41.0011 35.3955 40.8922L33.6849 38.0875L33.4939 38.204V38.2091M33.3591 38.1283L33.7298 37.9023L35.5106 40.8222C35.6146 40.9939 35.5603 41.2199 35.3886 41.3239L34.5208 41.8527C34.349 41.9566 34.123 41.9024 34.019 41.7307L32.2383 38.8109L32.6134 38.5848C32.6812 38.5442 32.7038 38.4538 32.6631 38.386L29.0249 32.4248L29.5213 32.1217L33.1603 38.0831C33.201 38.1509 33.2913 38.1735 33.3591 38.1328V38.1283ZM38.7898 26.8894C38.7248 26.7821 38.5821 26.747 38.4733 26.8127L37.9061 27.1583L41.4749 33.0058C41.5537 33.1372 41.5106 33.3101 41.3795 33.3892L41.1242 33.5449L42.8348 36.3496C42.8997 36.4569 43.0426 36.4924 43.1514 36.4268L44.0192 35.898C44.1265 35.833 44.1619 35.6901 44.0962 35.5813L38.7898 26.8894ZM44.2114 35.5113C44.3153 35.6831 44.2611 35.9091 44.0893 36.013L43.2215 36.5418C43.0497 36.6458 42.8238 36.5916 42.7198 36.4198L40.939 33.5L41.3096 33.274C41.3774 33.2333 41.4 33.1429 41.3593 33.0751L37.721 27.1138L38.4033 26.6976C38.5751 26.5936 38.8011 26.6479 38.905 26.8196L44.2114 35.5113ZM38.7969 34.9731L38.6489 35.0619C38.5175 35.1407 38.3446 35.0977 38.2655 34.9664L34.6929 29.12L34.1253 29.4658C34.0181 29.5307 33.9826 29.6736 34.0483 29.7824L39.3545 38.4739C39.4194 38.5812 39.5625 38.6168 39.6713 38.551L40.5389 38.0223C40.6461 37.9574 40.6816 37.8145 40.616 37.7057L38.905 34.9004L38.7922 34.9683L38.7969 34.9731ZM38.5751 34.9418L38.5796 34.9463L38.5783 34.9471C38.5728 34.9503 38.5671 34.9532 38.5613 34.9556C38.4976 34.9822 38.4209 34.9594 38.383 34.9002C38.3822 34.899 38.3815 34.8978 38.3807 34.8966L34.7377 28.9349L34.0552 29.3507C33.8835 29.4547 33.8292 29.6807 33.9332 29.8524L39.2395 38.5441C39.3435 38.7159 39.5694 38.7701 39.7412 38.6662L40.609 38.1374C40.7808 38.0334 40.835 37.8074 40.7311 37.6357L38.95 34.7159L38.5751 34.9418ZM40.5371 33.9109L40.3891 33.9997C40.2633 34.0751 40.0869 34.0457 40.0048 33.9029L36.433 28.0578L36.1659 28.2205L39.7347 34.0679C39.8102 34.1938 39.7806 34.3704 39.6376 34.4524L39.3799 34.6077L41.0902 37.4118C41.1551 37.5192 41.2982 37.5546 41.4071 37.4887L42.2745 36.9601C42.3818 36.8952 42.4172 36.7524 42.3516 36.6436L40.641 33.8388L40.5316 33.9055L40.5371 33.9109ZM40.3152 33.8796L40.3197 33.8842L40.3184 33.8849C40.3129 33.8882 40.3071 33.8911 40.3013 33.8936C40.2378 33.9206 40.1614 33.9013 40.1234 33.8388C40.1225 33.8374 40.1217 33.8359 40.1209 33.8344L36.4779 27.8727L35.9807 28.1756L39.6192 34.1373C39.6598 34.2051 39.6418 34.2955 39.5694 34.3362L39.1943 34.5621L40.9751 37.482C41.0791 37.6537 41.3051 37.708 41.4768 37.604L42.3446 37.0752C42.5164 36.9712 42.5706 36.7452 42.4667 36.5735L40.6859 33.6537L40.3152 33.8796ZM43.9303 31.8361L43.8649 31.8754C43.7334 31.9542 43.5605 31.9111 43.4814 31.7799L39.9133 25.9335L39.3458 26.2793C39.2385 26.3442 39.2031 26.4871 39.2687 26.5959L44.575 35.2874C44.6399 35.3947 44.7827 35.4302 44.8915 35.3646M44.8915 35.3646L45.7593 34.8358C45.8666 34.7709 45.902 34.628 45.8364 34.5192L44.1254 31.7139L43.9303 31.8314V31.8361M44.1707 31.5293L45.9515 34.4491C46.0555 34.6209 46.0012 34.8469 45.8295 34.9509L44.9617 35.4797C44.7899 35.5836 44.5639 35.5294 44.4599 35.3576L39.1536 26.6659C39.0497 26.4942 39.1039 26.2682 39.2757 26.1642L39.9582 25.7484L43.5967 31.7101C43.6373 31.7779 43.7277 31.8005 43.7955 31.7598V31.7553L44.1707 31.5293ZM51.0454 31.7643C51.2171 31.6604 51.2714 31.4344 51.1674 31.2626L45.8611 22.5709C45.7571 22.3992 45.5312 22.3449 45.3594 22.4489L44.6773 22.8645L48.3154 28.8264C48.3561 28.8942 48.3335 28.9846 48.2657 29.0253L47.895 29.2513L49.6759 32.1711C49.7798 32.3429 50.0058 32.3971 50.1776 32.2932L51.0454 31.7643ZM50.1078 32.1779C49.999 32.2435 49.856 32.2086 49.7911 32.1014L48.0803 29.2962L48.335 29.1408C48.4662 29.0617 48.5098 28.8886 48.4309 28.7571L48.4304 28.7562L44.8622 22.9096L45.4292 22.5642M50.1078 32.1779L50.9753 31.6493C51.0826 31.5843 51.118 31.4413 51.0522 31.3324L45.7461 22.6411C45.6812 22.5339 45.538 22.4986 45.4292 22.5642M47.4932 29.6622L47.3451 29.751C47.2137 29.8299 47.0408 29.7868 46.9617 29.6555L43.3936 23.8092L43.1265 23.9718L46.6953 29.8193C46.7708 29.9451 46.7412 30.1218 46.5981 30.2038L46.3405 30.359L48.0508 33.1631C48.1157 33.2704 48.2587 33.3059 48.3675 33.2402L49.2351 32.7115C49.3425 32.6465 49.3779 32.5034 49.312 32.3946L47.6012 29.5895L47.4884 29.6575L47.4932 29.6622ZM47.6465 29.405L49.4273 32.3248C49.5312 32.4966 49.477 32.7226 49.3052 32.8265L48.4374 33.3553C48.2657 33.4593 48.0397 33.4051 47.9357 33.2333L46.1549 30.3135L46.53 30.0875C46.6024 30.0468 46.6204 29.9564 46.5798 29.8886L42.9413 23.9269L43.4385 23.6241L47.0769 29.5858C47.0777 29.587 47.0784 29.5882 47.0792 29.5894C47.1172 29.6486 47.1939 29.6713 47.2575 29.6447C47.2633 29.6423 47.269 29.6395 47.2745 29.6363L47.2758 29.6355L47.2713 29.631L47.6465 29.405ZM45.753 30.7244L45.605 30.8132C45.4736 30.892 45.3007 30.849 45.2216 30.7178L45.2213 30.7173L41.649 24.8713L41.3819 25.034L44.9506 30.8814C45.0295 31.0129 44.9864 31.1857 44.8552 31.2649L44.6 31.4205L46.3106 34.2253C46.3755 34.3325 46.5184 34.368 46.6272 34.3024M46.6272 34.3024L47.495 33.7736C47.6023 33.7087 47.6377 33.5656 47.5719 33.4568L45.861 30.6517L45.7483 30.7196L45.753 30.7244M45.9063 30.4671L47.6871 33.387C47.7911 33.5587 47.7368 33.7847 47.5651 33.8887L46.6973 34.4175C46.5255 34.5215 46.2995 34.4672 46.1956 34.2955L44.4147 31.3756L44.7854 31.1496C44.8532 31.109 44.8758 31.0186 44.8351 30.9508L41.1968 24.9894L41.6938 24.6862L45.3368 30.6479C45.3375 30.6492 45.3383 30.6504 45.339 30.6516C45.377 30.7107 45.4537 30.7335 45.5174 30.7069C45.5232 30.7045 45.5288 30.7017 45.5343 30.6984L45.5357 30.6977L45.5312 30.6931L45.9063 30.4671ZM56.2658 28.5778C56.4376 28.4739 56.4918 28.2479 56.3879 28.0761L51.0816 19.3844H51.077C50.9731 19.2127 50.7471 19.1584 50.5753 19.2624L49.8928 19.6782L53.5358 25.6399C53.5765 25.7077 53.5539 25.7981 53.4861 25.8388L53.1155 26.0648L54.8963 28.9846C55.0003 29.1564 55.2263 29.2106 55.398 29.1067L56.2658 28.5778ZM55.3283 28.9914L56.1957 28.4628C56.303 28.3979 56.3384 28.255 56.2728 28.1462L51.0059 19.5192H51.0011L50.9618 19.4542C50.8968 19.3469 50.754 19.3118 50.6452 19.3776L50.0782 19.7231L53.6514 25.5706C53.7303 25.7021 53.6871 25.8751 53.5558 25.9541L53.3007 26.1097L55.0114 28.9145C55.0762 29.0217 55.2195 29.057 55.3283 28.9914ZM50.8909 27.5874L50.8254 27.6267C50.694 27.7056 50.5211 27.6625 50.442 27.5312L46.8739 21.6849L46.3064 22.0306C46.1991 22.0955 46.1637 22.2384 46.2293 22.3472L51.5355 31.0388C51.6005 31.1461 51.7435 31.1816 51.8524 31.1158L52.7199 30.5871C52.8272 30.5222 52.8626 30.3794 52.797 30.2706L51.086 27.4652L50.8909 27.5828V27.5874ZM51.1313 27.2806L50.7561 27.5066V27.5112C50.6883 27.5518 50.5979 27.5292 50.5572 27.4614L46.9189 21.4999L46.2363 21.9156C46.0645 22.0195 46.0103 22.2455 46.1142 22.4173L51.4205 31.109C51.5245 31.2807 51.7505 31.335 51.9222 31.231L52.7901 30.7022C52.9618 30.5982 53.0161 30.3722 52.9121 30.2005L51.1313 27.2806ZM52.5798 26.556L52.5656 26.5645C52.4341 26.6434 52.2612 26.6003 52.1821 26.469L48.614 20.6227L48.3471 20.7853L51.9197 26.6318L51.9203 26.6328C51.9957 26.7585 51.9662 26.935 51.8235 27.0171L51.5696 27.1719L53.2802 29.9766C53.3452 30.0839 53.4882 30.1194 53.5971 30.0536L54.4646 29.5249C54.5719 29.46 54.6073 29.3172 54.5417 29.2084L52.8307 26.403L52.5844 26.5514L52.5798 26.556ZM52.8759 26.2185L52.5008 26.4445L52.4963 26.449C52.4285 26.4897 52.3381 26.4671 52.2974 26.3993L48.6589 20.4376L48.1623 20.74L51.8047 26.7021C51.8454 26.7699 51.8273 26.8603 51.755 26.901L51.3844 27.127L53.1652 30.0468C53.2692 30.2186 53.4952 30.2728 53.6669 30.1688L54.5347 29.64C54.7065 29.5361 54.7607 29.3101 54.6568 29.1383L52.8759 26.2185ZM56.0601 24.4317L56.0459 24.4402C55.9143 24.5191 55.7413 24.4759 55.6622 24.3444L52.0943 18.4983L51.5268 18.8441C51.4195 18.9091 51.3841 19.0521 51.4499 19.161L56.756 27.8522C56.8209 27.9596 56.964 27.9951 57.0728 27.9293L57.9404 27.4006C58.0476 27.3357 58.0831 27.1929 58.0175 27.0841L56.3068 24.2793L56.065 24.4268L56.0601 24.4317ZM55.9811 24.3201L55.9766 24.3246C55.9088 24.3653 55.8184 24.3427 55.7777 24.2749L52.1393 18.3133L51.4567 18.729C51.2849 18.833 51.2307 19.059 51.3347 19.2308L56.641 27.9225C56.7449 28.0942 56.9709 28.1485 57.1427 28.0445L58.0105 27.5157C58.1823 27.4117 58.2365 27.1857 58.1325 27.014L56.3517 24.0941L55.9811 24.3201ZM58.0421 15.1358C57.9382 14.964 57.7122 14.9098 57.5404 15.0137L56.8579 15.4295L60.4964 21.3913C60.5371 21.459 60.5145 21.5494 60.4467 21.5901L60.0761 21.8161L61.8569 24.736C61.9609 24.9077 62.1869 24.9619 62.3586 24.858L63.2264 24.3292C63.3982 24.2252 63.4524 23.9992 63.3485 23.8275L58.0421 15.1358ZM62.2888 24.7427L63.1563 24.2141C63.2636 24.1492 63.299 24.0063 63.2334 23.8975L57.9271 15.206C57.8622 15.0986 57.7191 15.0631 57.6102 15.129L57.0432 15.4745L60.612 21.3219C60.6908 21.4533 60.6478 21.626 60.5169 21.7052M60.516 21.7057L60.2613 21.861L61.972 24.6658C62.0369 24.7731 62.18 24.8086 62.2888 24.7427M59.5916 22.2766L59.5262 22.3158C59.3946 22.3948 59.2215 22.3516 59.1425 22.2201L55.5746 16.374L55.3076 16.5366L58.8764 22.3841C58.9553 22.5156 58.9121 22.6887 58.7806 22.7677M58.7806 22.7677L58.5215 22.9238L60.2318 25.728C60.2967 25.8352 60.4396 25.8707 60.5484 25.8051M60.5484 25.8051L61.4162 25.2763C61.5234 25.2114 61.5589 25.0685 61.4932 24.9597L59.7826 22.155L59.5916 22.2714V22.2766M59.4569 22.1958V22.2003C59.3891 22.241 59.2987 22.2184 59.258 22.1506L55.6195 16.1889L55.1223 16.4917L58.7608 22.4534C58.8015 22.5212 58.7789 22.6116 58.7111 22.6523L58.3361 22.8782L60.1168 25.7981C60.2207 25.9699 60.4467 26.0241 60.6185 25.9202L61.4863 25.3913C61.658 25.2874 61.7123 25.0614 61.6083 24.8896L59.8275 21.9698L59.4569 22.1958ZM59.7552 26.4535C59.9269 26.3495 59.9812 26.1236 59.8772 25.9518L58.0964 23.032L57.7258 23.258L57.7167 23.2625C57.6489 23.3032 57.5585 23.2806 57.5178 23.2128L53.8793 17.2511L53.3822 17.5539L57.0252 23.5156C57.0659 23.5834 57.0433 23.6738 56.9755 23.7145L56.6048 23.9405L58.3857 26.8603C58.4896 27.032 58.7156 27.0863 58.8874 26.9823L59.7552 26.4535ZM56.79 23.9853L58.5007 26.7901C58.5656 26.8974 58.7087 26.9329 58.8175 26.8671L59.6851 26.3384C59.7923 26.2735 59.8278 26.1307 59.7621 26.0219L58.0515 23.2171L57.7911 23.3759L57.7809 23.3811C57.6502 23.4557 57.481 23.4122 57.4028 23.2829M57.4023 23.2821L53.8345 17.4362L53.5675 17.5988L57.1402 23.4453L57.1407 23.4463C57.2196 23.5777 57.1765 23.7507 57.0452 23.8298L56.79 23.9853" fill="white"/>
<path d="M14.8691 49.2499L14.4126 49.5256C14.2635 49.616 14.0691 49.5708 13.9787 49.4216L10.5029 43.7266L11.4973 43.1209L14.9731 48.8159C15.0635 48.9651 15.0183 49.1595 14.8691 49.2499ZM13.2374 42.0587L12.2431 42.6644L15.7189 48.3594C15.8093 48.5086 16.0036 48.5538 16.1528 48.4634L16.6093 48.1832C16.7584 48.0928 16.8036 47.8984 16.7132 47.7493L13.2374 42.0542V42.0587ZM16.7177 39.9344L15.7234 40.5401L19.1992 46.2351C19.2896 46.3843 19.4839 46.4295 19.6331 46.3391L20.0896 46.0633C20.2387 45.9729 20.2839 45.7786 20.1935 45.6294L16.7177 39.9344ZM18.4579 38.8722L17.4635 39.4779L20.9393 45.1729C21.0297 45.3221 21.2241 45.3673 21.3732 45.2769L21.8297 44.9967C21.9789 44.9063 22.0241 44.7119 21.9337 44.5627L18.4579 38.8677V38.8722ZM20.198 37.8101L19.2037 38.4157L22.6795 44.1108C22.7699 44.2599 22.9642 44.3051 23.1134 44.2147L23.5699 43.939C23.719 43.8486 23.7642 43.6543 23.6738 43.5051L20.198 37.8101ZM27.0456 41.8147L26.5891 42.0949C26.44 42.1853 26.2456 42.1401 26.1552 41.9909L22.6795 36.2959L23.6738 35.6902L27.1496 41.3853C27.24 41.5344 27.1948 41.7288 27.0456 41.8192V41.8147ZM25.414 34.6236L24.4196 35.2292L27.8954 40.9243C27.9858 41.0734 28.1801 41.1186 28.3293 41.0282L28.7858 40.748C28.935 40.6576 28.9802 40.4632 28.8898 40.3141L25.414 34.619V34.6236ZM28.8943 32.4992L27.8999 33.1049L31.3757 38.7999C31.4661 38.9491 31.6604 38.9943 31.8096 38.9039L32.2661 38.6282C32.4153 38.5378 32.4605 38.3434 32.3701 38.1943L28.8943 32.4992ZM30.6344 31.4371L29.64 32.0427L33.1158 37.7377C33.2062 37.8869 33.4006 37.9321 33.5497 37.8417L34.0062 37.5615C34.1554 37.4711 34.2006 37.2767 34.1102 37.1276L30.6344 31.4325V31.4371ZM32.3746 30.3749L31.3802 30.9805L34.856 36.6756C34.9464 36.8247 35.1407 36.8699 35.2899 36.7795L35.7464 36.5038C35.8955 36.4134 35.9407 36.2191 35.8504 36.0699L32.3746 30.3749ZM39.2222 34.3795L38.7657 34.6552C38.6165 34.7456 38.4222 34.7004 38.3318 34.5512L34.856 28.8562L35.8504 28.2505L39.3261 33.9456C39.4165 34.0947 39.3713 34.2891 39.2222 34.3795ZM37.5905 27.1884L36.5961 27.794L40.0719 33.4891C40.1623 33.6382 40.3567 33.6834 40.5058 33.593L40.9623 33.3173C41.1115 33.2269 41.1567 33.0326 41.0663 32.8834L37.5905 27.1884ZM41.0708 25.064L40.0764 25.6697L43.5522 31.3647C43.6426 31.5139 43.837 31.5591 43.9861 31.4687L44.4426 31.1885C44.5918 31.0981 44.637 30.9037 44.5466 30.7546L41.0708 25.0595V25.064ZM42.8109 24.0019L41.8166 24.6075L45.2924 30.3026C45.3828 30.4517 45.5771 30.4969 45.7263 30.4065L46.1828 30.1263C46.3319 30.0359 46.3816 29.8415 46.2867 29.6924L42.8109 23.9974V24.0019ZM44.5511 22.9397L43.5567 23.5454L47.0325 29.2404C47.1229 29.3896 47.3173 29.4348 47.4664 29.3444L47.9229 29.0641C48.0721 28.9737 48.1173 28.7794 48.0269 28.6302L44.5511 22.9352V22.9397ZM51.4032 26.9443L50.9467 27.22C50.7976 27.3104 50.6032 27.2652 50.5128 27.1161L47.037 21.421L48.0314 20.8154L51.5072 26.5104C51.5976 26.6596 51.5524 26.8539 51.4032 26.9443ZM49.7715 19.7532L48.7772 20.3589L52.253 26.0539C52.3434 26.203 52.5377 26.2482 52.6869 26.1578L53.1434 25.8821C53.2925 25.7917 53.3377 25.5974 53.2473 25.4482L49.7715 19.7532ZM53.2518 17.6289L52.2575 18.2345L55.7333 23.9296C55.8236 24.0787 56.018 24.1239 56.1672 24.0335L56.6237 23.7533C56.7728 23.6629 56.818 23.4685 56.7276 23.3194L53.2518 17.6243V17.6289ZM54.992 16.5667L53.9976 17.1724L57.4734 22.8674C57.5638 23.0165 57.7582 23.0617 57.9073 22.9713L58.3638 22.6956C58.513 22.6052 58.5582 22.4109 58.4678 22.2617L54.992 16.5667ZM56.7321 15.5045L55.7378 16.1102L59.2136 21.8052C59.3039 21.9544 59.4983 21.9996 59.6475 21.9092L60.104 21.6289C60.2531 21.5385 60.2983 21.3442 60.2079 21.195L56.7321 15.5V15.5045Z" fill="white"/>
<rect x="9.8252" y="47.1875" width="0.774779" height="6.95151" transform="rotate(-31.5764 9.8252 47.1875)" fill="#15151A"/>
<rect width="1.03657" height="2.49749" transform="matrix(0.851943 -0.523635 -0.523634 -0.851943 18.1758 50.5508)" fill="#15151A"/>
<rect width="1.32258" height="2.48219" transform="matrix(0.851943 -0.523634 -0.523635 -0.851943 59.873 25.0039)" fill="#15151A"/>
</svg>
