<svg width="68" height="68" viewBox="0 0 68 68" fill="none" xmlns="http://www.w3.org/2000/svg">
<g clip-path="url(#clip0_1950_24527)">
<path d="M43.882 35.0821L19.449 57.8402L12.9296 52.4182L30.7198 24.1538L43.882 35.0821Z" stroke="white" stroke-width="0.6"/>
<path d="M30.865 47.6204L31.5318 46.2139L21.8891 37.8568L20.8399 39.2914L30.865 47.6204Z" fill="white"/>
<path d="M49.3479 31.5959L49.3477 31.5961C45.6358 36.0835 39.0028 36.6946 34.5298 32.9785L34.5292 32.9781C30.0468 29.2651 29.4264 22.6113 33.1324 18.1361L33.1329 18.1355C36.8348 13.652 43.4773 13.0372 47.9505 16.7534C52.4245 20.4703 53.0534 27.1213 49.3479 31.5959Z" fill="#15151A" stroke="#E95135"/>
<path d="M12.1765 59.9647L12.0174 59.832C11.5083 59.4075 11.4386 58.6487 11.862 58.1394L14.9182 54.4622L16.0001 55.3643L12.1699 59.9727L12.1765 59.9647Z" fill="#FF826B"/>
</g>
<defs>
<clipPath id="clip0_1950_24527">
<rect width="50.1185" height="35.7095" fill="white" transform="translate(0.674805 26.9609) rotate(-18.7441)"/>
</clipPath>
</defs>
</svg>
