<svg width="73" height="72" viewBox="0 0 73 72" fill="none" xmlns="http://www.w3.org/2000/svg">
<path d="M55.4257 25.825C55.4257 25.825 52.6142 22.1055 52.1476 21.4336L37.3548 32.0539C36.3507 30.8557 35.7659 30.5405 34.688 30.0886C33.0785 29.4107 31.3951 29.5802 29.6881 30.5911C28.2587 31.4384 27.5972 32.4285 27.0154 33.3026C26.1531 34.596 25.4738 35.6158 22.745 35.6307C20.3617 35.6425 18.1556 36.0291 16.363 36.7456C14.2603 37.587 12.7837 38.8417 11.9804 40.477C11.1151 42.2341 10.1612 45.9388 13.4895 51.0259C16.8149 56.1131 20.5744 56.6928 22.5176 56.5888C24.3309 56.4907 26.0586 55.6225 27.6563 54.008C29.0177 52.6344 30.2404 50.7464 31.1943 48.5492C32.287 46.0309 33.486 45.805 35.0069 45.5195C36.0347 45.3263 37.1982 45.1063 38.539 44.1192C40.1367 42.9418 40.9577 41.4552 40.9725 39.695C40.9843 38.5325 40.9961 38.0389 40.3139 36.6534C40.3139 36.6534 55.4405 25.8518 55.4198 25.825H55.4257Z" fill="#15151A"/>
<path d="M22.1189 56.7827C20.22 56.7827 16.555 56.0483 13.3389 51.1247C9.96037 45.9602 10.9349 42.1843 11.818 40.3944C12.6419 38.7175 14.151 37.4301 16.2981 36.5738C18.1114 35.8484 20.3411 35.4589 22.745 35.447C25.3764 35.4321 26.0025 34.4956 26.8648 33.2022C27.4584 32.3132 28.1288 31.3053 29.5966 30.4342C31.3449 29.3965 33.1021 29.2211 34.7589 29.9198C35.8368 30.3717 36.4304 30.6988 37.3843 31.8078L52.0384 21.2856C52.0768 21.2559 52.127 21.244 52.1772 21.2529C52.2244 21.2618 52.2687 21.2886 52.2953 21.3302C52.7531 21.9903 55.5409 25.68 55.5675 25.7157C55.597 25.7543 55.6089 25.8049 55.6029 25.8554C55.5931 25.9288 50.5745 29.5491 40.5472 36.7165C41.1733 38.0247 41.1674 38.557 41.1556 39.6719C41.1379 41.5183 40.2933 43.0584 38.6454 44.2715C37.2721 45.2823 36.0878 45.5053 35.0424 45.7045C33.5155 45.9929 32.4169 46.2011 31.3626 48.6272C30.3969 50.8482 29.1595 52.757 27.7862 54.1455C26.156 55.7897 24.3841 56.6757 22.5294 56.7797C22.3995 56.7857 22.2636 56.7916 22.1189 56.7916V56.7827ZM32.7241 29.8603C31.7643 29.8603 30.7749 30.1576 29.7856 30.7463C28.3887 31.5759 27.7419 32.5451 27.172 33.4014C26.3155 34.6858 25.5772 35.7948 22.7509 35.8097C20.3913 35.8216 18.2059 36.2051 16.4369 36.9128C14.3755 37.7363 12.9313 38.9643 12.1487 40.5549C11.3012 42.2764 10.3679 45.9097 13.646 50.9195C16.7706 55.6975 20.2968 56.4111 22.1219 56.4111C22.2607 56.4111 22.3906 56.4081 22.5117 56.4021C24.2778 56.304 25.9641 55.4567 27.5293 53.8749C28.873 52.5191 30.0839 50.649 31.0319 48.4696C32.163 45.8621 33.4653 45.6153 34.9745 45.3329C35.9845 45.1426 37.1274 44.9256 38.4327 43.9652C39.9802 42.8235 40.7747 41.3845 40.7924 39.6868C40.8042 38.5302 40.8101 38.0634 40.1545 36.7284C40.1131 36.6482 40.1397 36.5471 40.2135 36.4965C45.0303 33.0565 53.9491 26.682 55.1688 25.7841C54.6668 25.121 52.7058 22.5195 52.1063 21.684L37.464 32.1973C37.3873 32.2538 37.278 32.2389 37.2189 32.1646C36.2473 31.005 35.7069 30.7047 34.623 30.2498C34.0028 29.9882 33.3649 29.8574 32.727 29.8574L32.7241 29.8603Z" fill="white"/>
<g style="mix-blend-mode:multiply" opacity="0.3">
<path d="M39.8623 42.8447C40.5829 41.923 40.9639 40.8705 40.9757 39.6961C40.9816 39.1966 40.9816 38.819 40.9314 38.4414C40.6006 39.9102 40.261 41.3879 39.8623 42.8477V42.8447Z" fill="#FABC72"/>
</g>
<g style="mix-blend-mode:multiply" opacity="0.3">
<path d="M26.4717 55.0522C26.8733 54.7489 27.2691 54.404 27.6589 54.0116C28.8372 52.8223 29.9122 51.2465 30.7982 49.418C29.3127 51.2614 27.8243 53.1047 26.4717 55.0522Z" fill="#FABC72"/>
</g>
<g style="mix-blend-mode:multiply">
<path d="M15.2051 37.293C14.3871 37.736 13.6872 38.2563 13.1172 38.8539C13.7669 38.2712 14.458 37.73 15.2051 37.293Z" fill="#FABC72"/>
</g>
<path d="M57.8415 15.6133L51.7549 21.6489L55.0182 26.1236L62.5727 22.1603L57.8415 15.6133Z" fill="#15151A"/>
<path d="M55.0182 26.309C54.9621 26.309 54.906 26.2822 54.8705 26.2346L51.6072 21.76C51.554 21.6856 51.5599 21.5845 51.6249 21.5191L57.7116 15.4835C57.7499 15.4449 57.8031 15.427 57.8563 15.43C57.9094 15.436 57.9567 15.4627 57.9892 15.5043L62.7232 22.0513C62.7528 22.0959 62.7646 22.1495 62.7528 22.203C62.7409 22.2565 62.7055 22.2981 62.6583 22.3249L55.1038 26.2882C55.0772 26.303 55.0477 26.309 55.0182 26.309ZM51.997 21.6708L55.0743 25.8897L62.3009 22.0989L57.8179 15.8968L51.997 21.6708Z" fill="white"/>
<path d="M27.609 45.2763C25.5446 45.2763 23.8672 43.5875 23.8672 41.5092C23.8672 39.431 25.5446 37.7422 27.609 37.7422C29.6733 37.7422 31.3507 39.431 31.3507 41.5092C31.3507 43.5875 29.6733 45.2763 27.609 45.2763ZM27.609 38.1109C25.7484 38.1109 24.2334 39.6361 24.2334 41.5092C24.2334 43.3824 25.7484 44.9076 27.609 44.9076C29.4695 44.9076 30.9845 43.3824 30.9845 41.5092C30.9845 39.6361 29.4695 38.1109 27.609 38.1109Z" fill="#FF826B"/>
<path d="M54.5486 21.0692C54.5486 21.4706 54.2238 21.7947 53.828 21.7947C53.4323 21.7947 53.1074 21.4706 53.1074 21.0692C53.1074 20.6678 53.4293 20.3438 53.828 20.3438C54.2267 20.3438 54.5486 20.6678 54.5486 21.0692Z" fill="#EE715C"/>
<path d="M53.8275 21.9788C53.3284 21.9788 52.9238 21.5715 52.9238 21.069C52.9238 20.5666 53.3284 20.1562 53.8275 20.1562C54.3266 20.1562 54.7342 20.5636 54.7342 21.069C54.7342 21.5745 54.3296 21.9788 53.8275 21.9788ZM53.8275 20.5249C53.5292 20.5249 53.29 20.7687 53.29 21.0661C53.29 21.3634 53.5322 21.6072 53.8275 21.6072C54.1228 21.6072 54.365 21.3634 54.365 21.0661C54.365 20.7687 54.1228 20.5249 53.8275 20.5249Z" fill="#FF6043"/>
<path d="M54.1884 21.0659C54.1884 21.2651 54.0259 21.4286 53.8281 21.4286C53.6302 21.4286 53.4678 21.2651 53.4678 21.0659C53.4678 20.8667 53.6302 20.7031 53.8281 20.7031C54.0259 20.7031 54.1884 20.8667 54.1884 21.0659Z" fill="#EE715C"/>
<path d="M53.8276 21.6176C53.5263 21.6176 53.2842 21.3708 53.2842 21.0705C53.2842 20.7702 53.5293 20.5234 53.8276 20.5234C54.1259 20.5234 54.371 20.7702 54.371 21.0705C54.371 21.3708 54.1259 21.6176 53.8276 21.6176ZM53.8276 20.8921C53.7301 20.8921 53.6504 20.9724 53.6504 21.0705C53.6504 21.1686 53.7301 21.2489 53.8276 21.2489C53.925 21.2489 54.0048 21.1686 54.0048 21.0705C54.0048 20.9724 53.925 20.8921 53.8276 20.8921Z" fill="#15151A"/>
<path d="M56.6541 24.202C56.6541 24.6034 56.3292 24.9275 55.9335 24.9275C55.5377 24.9275 55.2129 24.6034 55.2129 24.202C55.2129 23.8006 55.5377 23.4766 55.9335 23.4766C56.3292 23.4766 56.6541 23.8006 56.6541 24.202Z" fill="#EE715C"/>
<path d="M55.933 25.1126C55.4339 25.1126 55.0264 24.7052 55.0264 24.2028C55.0264 23.7003 55.4339 23.293 55.933 23.293C56.4321 23.293 56.8397 23.7003 56.8397 24.2028C56.8397 24.7052 56.4321 25.1126 55.933 25.1126ZM55.933 23.6587C55.6347 23.6587 55.3955 23.9025 55.3955 24.1998C55.3955 24.4971 55.6377 24.7409 55.933 24.7409C56.2283 24.7409 56.4705 24.4971 56.4705 24.1998C56.4705 23.9025 56.2283 23.6587 55.933 23.6587Z" fill="#FF6043"/>
<path d="M56.2938 24.2026C56.2938 24.4018 56.1314 24.5653 55.9335 24.5653C55.7357 24.5653 55.5732 24.4018 55.5732 24.2026C55.5732 24.0034 55.7357 23.8398 55.9335 23.8398C56.1314 23.8398 56.2938 24.0034 56.2938 24.2026Z" fill="#EE715C"/>
<path d="M55.9331 24.7465C55.6318 24.7465 55.3896 24.4997 55.3896 24.1994C55.3896 23.8991 55.6348 23.6523 55.9331 23.6523C56.2313 23.6523 56.4765 23.8991 56.4765 24.1994C56.4765 24.4997 56.2313 24.7465 55.9331 24.7465ZM55.9331 24.021C55.8356 24.021 55.7559 24.1013 55.7559 24.1994C55.7559 24.2975 55.8356 24.3778 55.9331 24.3778C56.0305 24.3778 56.1102 24.2975 56.1102 24.1994C56.1102 24.1013 56.0305 24.021 55.9331 24.021Z" fill="#15151A"/>
<path d="M22.689 43.0038C22.6299 43.0038 22.5738 42.977 22.5384 42.9235C22.4822 42.8403 22.5029 42.7243 22.5856 42.6648L53.7218 20.9158C53.8045 20.8564 53.9196 20.8802 53.9758 20.9634C54.0348 21.0467 54.0142 21.1626 53.9315 21.2191L22.7953 42.9711C22.7628 42.9949 22.7274 43.0038 22.6919 43.0038H22.689Z" fill="white"/>
<path d="M25.0194 46.2565C24.9603 46.2565 24.9042 46.2297 24.8687 46.1792C24.8097 46.0959 24.8303 45.98 24.913 45.9235L55.8277 24.0496C55.9104 23.9902 56.0256 24.011 56.0847 24.0942C56.1437 24.1775 56.123 24.2934 56.0404 24.3499L25.1257 46.2238C25.0932 46.2476 25.0548 46.2565 25.0194 46.2565Z" fill="white"/>
<path d="M23.3475 44.1336C23.2884 44.1336 23.2323 44.1068 23.1969 44.0533C23.1378 43.97 23.1585 43.8541 23.2412 43.7976L57.7352 19.5184C57.8179 19.4589 57.9331 19.4797 57.9892 19.563C58.0482 19.6462 58.0276 19.7622 57.9449 19.8187L23.4508 44.1008C23.4184 44.1246 23.3829 44.1336 23.3475 44.1336Z" fill="white"/>
<path d="M24.2069 45.325C24.1478 45.325 24.0917 45.2982 24.0562 45.2447C23.9972 45.1615 24.0178 45.0455 24.1005 44.989L58.819 20.5522C58.9017 20.4957 59.0169 20.5136 59.073 20.5968C59.1321 20.6801 59.1114 20.796 59.0287 20.8525L24.3132 45.2923C24.2807 45.3161 24.2452 45.325 24.2098 45.325H24.2069Z" fill="white"/>
<path d="M59.6463 20.87C59.6463 21.2714 59.3244 21.5955 58.9257 21.5955C58.527 21.5955 58.2051 21.2684 58.2051 20.87C58.2051 20.4716 58.5299 20.1445 58.9257 20.1445C59.3214 20.1445 59.6463 20.4686 59.6463 20.87Z" fill="#EE715C"/>
<path d="M58.9223 21.7796C58.4232 21.7796 58.0156 21.3693 58.0156 20.8668C58.0156 20.3644 58.4202 19.957 58.9223 19.957C59.4243 19.957 59.826 20.3673 59.826 20.8668C59.826 21.3663 59.4214 21.7796 58.9223 21.7796ZM58.9223 20.3257C58.624 20.3257 58.3848 20.5695 58.3848 20.8668C58.3848 21.1642 58.627 21.408 58.9223 21.408C59.2176 21.408 59.4598 21.1642 59.4598 20.8668C59.4598 20.5695 59.2176 20.3257 58.9223 20.3257Z" fill="#FF6043"/>
<path d="M59.2831 20.8705C59.2831 21.0727 59.1207 21.2333 58.9228 21.2333C58.7249 21.2333 58.5625 21.0697 58.5625 20.8705C58.5625 20.6713 58.7249 20.5078 58.9228 20.5078C59.1207 20.5078 59.2831 20.6713 59.2831 20.8705Z" fill="#EE715C"/>
<path d="M58.9223 21.4184C58.6211 21.4184 58.3789 21.1716 58.3789 20.8713C58.3789 20.571 58.624 20.3242 58.9223 20.3242C59.2206 20.3242 59.4657 20.571 59.4657 20.8713C59.4657 21.1716 59.2206 21.4184 58.9223 21.4184ZM58.9223 20.6929C58.8248 20.6929 58.7451 20.7732 58.7451 20.8713C58.7451 20.9694 58.8248 21.0497 58.9223 21.0497C59.0198 21.0497 59.0995 20.9694 59.0995 20.8713C59.0995 20.7732 59.0198 20.6929 58.9223 20.6929Z" fill="#15151A"/>
<path d="M20.6836 41.7724L25.5978 48.2748L26.6049 47.6356L21.7822 40.9727L20.6836 41.7724Z" fill="#E95135"/>
<path d="M25.5979 48.4593C25.5418 48.4593 25.4886 48.4355 25.4532 48.3879L20.539 41.8855C20.5094 41.8469 20.4947 41.7963 20.5035 41.7458C20.5124 41.6982 20.539 41.6536 20.5774 41.6239L21.676 40.8241C21.7587 40.7646 21.8709 40.7825 21.93 40.8657L26.7556 47.5287C26.7851 47.5703 26.7969 47.6208 26.7881 47.6714C26.7792 47.7219 26.7497 47.7665 26.7054 47.7933L25.6983 48.4295C25.6688 48.4503 25.6333 48.4593 25.6009 48.4593H25.5979ZM20.9406 41.8112L25.6422 48.0282L26.3421 47.5851L21.7409 41.2314L20.9406 41.8142V41.8112Z" fill="#E95135"/>
<path d="M58.6092 19.4169C58.6092 19.8183 58.2843 20.1423 57.8886 20.1423C57.4928 20.1423 57.168 19.8183 57.168 19.4169C57.168 19.0155 57.4928 18.6914 57.8886 18.6914C58.2843 18.6914 58.6092 19.0185 58.6092 19.4169Z" fill="#EE715C"/>
<path d="M57.8852 20.3265C57.3861 20.3265 56.9785 19.9162 56.9785 19.4167C56.9785 18.9172 57.3861 18.5039 57.8852 18.5039C58.3843 18.5039 58.7918 18.9142 58.7918 19.4167C58.7918 19.9192 58.3843 20.3265 57.8852 20.3265ZM57.8852 18.8726C57.5869 18.8726 57.3477 19.1164 57.3477 19.4137C57.3477 19.711 57.5898 19.9548 57.8852 19.9548C58.1805 19.9548 58.4227 19.711 58.4227 19.4137C58.4227 19.1164 58.1805 18.8726 57.8852 18.8726Z" fill="#FF6043"/>
<path d="M58.246 19.4174C58.246 19.6166 58.0836 19.7801 57.8857 19.7801C57.6878 19.7801 57.5254 19.6166 57.5254 19.4174C57.5254 19.2182 57.6878 19.0547 57.8857 19.0547C58.0836 19.0547 58.246 19.2182 58.246 19.4174Z" fill="#EE715C"/>
<path d="M57.8862 19.9652C57.5849 19.9652 57.3428 19.7185 57.3428 19.4182C57.3428 19.1179 57.5879 18.8711 57.8862 18.8711C58.1845 18.8711 58.4296 19.1179 58.4296 19.4182C58.4296 19.7185 58.1845 19.9652 57.8862 19.9652ZM57.8862 19.2398C57.7887 19.2398 57.709 19.32 57.709 19.4182C57.709 19.5163 57.7887 19.5966 57.8862 19.5966C57.9836 19.5966 58.0634 19.5163 58.0634 19.4182C58.0634 19.32 57.9836 19.2398 57.8862 19.2398Z" fill="#15151A"/>
</svg>
