<svg width="17" height="17" viewBox="0 0 17 17" fill="none" xmlns="http://www.w3.org/2000/svg">
<path fill-rule="evenodd" clip-rule="evenodd" d="M5.54 3.3737C3.95746 3.3737 2.66667 4.66337 2.66667 6.26703C2.66667 8.32316 3.61409 9.98026 4.83137 11.2275C6.0587 12.485 7.50883 13.2692 8.35589 13.5584L8.36188 13.5604C8.36363 13.5609 8.37487 13.5639 8.39675 13.567C8.42518 13.571 8.46086 13.5737 8.5 13.5737C8.53914 13.5737 8.57482 13.571 8.60325 13.567C8.62661 13.5637 8.63784 13.5605 8.63835 13.5604L8.64409 13.5583L8.64411 13.5584C9.49117 13.2692 10.9413 12.485 12.1686 11.2275C13.3859 9.98026 14.3333 8.32316 14.3333 6.26703C14.3333 4.66337 13.0425 3.3737 11.46 3.3737C10.5287 3.3737 9.69221 3.82605 9.16902 4.53054C9.01181 4.74224 8.76368 4.86703 8.5 4.86703C8.23632 4.86703 7.98819 4.74224 7.83098 4.53054C7.30728 3.82536 6.47719 3.3737 5.54 3.3737ZM1 6.26703C1 3.75069 3.02921 1.70703 5.54 1.70703C6.6743 1.70703 7.70832 2.12556 8.50043 2.81458C9.29441 2.12528 10.3313 1.70703 11.46 1.70703C13.9708 1.70703 16 3.75069 16 6.26703C16 8.87757 14.7874 10.9305 13.3614 12.3916C11.9468 13.8409 10.2723 14.763 9.18591 15.1345C8.95696 15.2145 8.70813 15.2404 8.5 15.2404C8.29187 15.2404 8.04304 15.2145 7.81409 15.1345C6.72772 14.763 5.05318 13.8409 3.63863 12.3916C2.21258 10.9305 1 8.87757 1 6.26703Z" fill="#6C7AFF"/>
</svg>  
