<svg width="56" height="56" viewBox="0 0 56 56" fill="none" xmlns="http://www.w3.org/2000/svg">
<path d="M39.6665 47.8337H16.3332C9.33317 47.8337 4.6665 44.3337 4.6665 36.167V19.8337C4.6665 11.667 9.33317 8.16699 16.3332 8.16699H39.6665C46.6665 8.16699 51.3332 11.667 51.3332 19.8337V36.167C51.3332 44.3337 46.6665 47.8337 39.6665 47.8337Z" fill="#6C7AFF" fill-opacity="0.3"/>
<path fill-rule="evenodd" clip-rule="evenodd" d="M9.46288 12.647C8.02803 13.9794 7.00016 16.1944 7.00016 19.833V36.1663C7.00016 39.8049 8.02803 42.02 9.46288 43.3523C10.929 44.7138 13.1912 45.4997 16.3335 45.4997H39.6668C42.8091 45.4997 45.0713 44.7138 46.5374 43.3523C47.9723 42.02 49.0002 39.8049 49.0002 36.1663V19.833C49.0002 16.1944 47.9723 13.9794 46.5374 12.647C45.0713 11.2856 42.8091 10.4997 39.6668 10.4997H16.3335C13.1912 10.4997 10.929 11.2856 9.46288 12.647ZM6.28744 9.22732C8.90462 6.79709 12.4758 5.83301 16.3335 5.83301H39.6668C43.5245 5.83301 47.0957 6.79709 49.7129 9.22732C52.3614 11.6866 53.6668 15.3049 53.6668 19.833V36.1663C53.6668 40.6944 52.3614 44.3127 49.7129 46.772C47.0957 49.2023 43.5245 50.1663 39.6668 50.1663H16.3335C12.4758 50.1663 8.90462 49.2023 6.28744 46.772C3.63897 44.3127 2.3335 40.6944 2.3335 36.1663V19.833C2.3335 15.3049 3.63897 11.6866 6.28744 9.22732Z" fill="#6C7AFF"/>
<path fill-rule="evenodd" clip-rule="evenodd" d="M41.4899 19.5442C42.2942 20.5511 42.1299 22.0193 41.1229 22.8236L33.8167 28.6592C30.5628 31.2497 25.414 31.2497 22.1601 28.6592L22.1544 28.6546L14.8744 22.8213C13.8687 22.0155 13.7067 20.547 14.5125 19.5414C15.3183 18.5357 16.7868 18.3737 17.7925 19.1795L25.0692 25.0103C26.622 26.2441 29.3568 26.2438 30.9089 25.0092C30.9085 25.0095 30.9093 25.0089 30.9089 25.0092L38.2106 19.1772C39.2175 18.373 40.6857 18.5373 41.4899 19.5442Z" fill="#6C7AFF"/>
</svg>
