<svg width="56" height="56" viewBox="0 0 56 56" fill="none" xmlns="http://www.w3.org/2000/svg">
<path d="M53.6668 27.9997C53.6668 42.175 42.1755 53.6663 28.0002 53.6663C13.8249 53.6663 2.3335 42.175 2.3335 27.9997C2.3335 13.8244 13.8249 2.33301 28.0002 2.33301C42.1755 2.33301 53.6668 13.8244 53.6668 27.9997Z" fill="#DDF7DC"/>
<path fill-rule="evenodd" clip-rule="evenodd" d="M1.75 28C1.75 13.5558 13.5558 1.75 28 1.75C42.4442 1.75 54.25 13.5558 54.25 28C54.25 42.4442 42.4442 54.25 28 54.25C13.5558 54.25 1.75 42.4442 1.75 28ZM28 7.58333C16.7775 7.58333 7.58333 16.7775 7.58333 28C7.58333 39.2225 16.7775 48.4167 28 48.4167C39.2225 48.4167 48.4167 39.2225 48.4167 28C48.4167 16.7775 39.2225 7.58333 28 7.58333Z" fill="#15803D"/>
<path fill-rule="evenodd" clip-rule="evenodd" d="M39.9807 19.3366C41.1187 20.4766 41.1171 22.3233 39.9771 23.4614L26.7471 36.668C25.6078 37.8053 23.7624 37.8045 22.6241 36.6662L16.0208 30.0629C14.8817 28.9238 14.8817 27.0771 16.0208 25.9381C17.1598 24.799 19.0065 24.799 20.1456 25.9381L24.6883 30.4808L35.8559 19.3329C36.996 18.1949 38.8427 18.1965 39.9807 19.3366Z" fill="#15803D"/>
</svg>
