<svg width="119" height="97" viewBox="0 0 119 97" fill="none" xmlns="http://www.w3.org/2000/svg">
<g opacity="0.4">
<path fill-rule="evenodd" clip-rule="evenodd" d="M58.753 42.3381C65.0616 41.6896 71.73 43.2114 76.2384 47.6959C79.7734 51.2121 81.9341 55.0462 82.667 59.1626C83.3995 63.2767 82.6719 67.4821 80.7586 71.6857C78.278 77.1356 74.3518 81.3396 69.2122 83.2449C64.0466 85.1598 57.9827 84.6315 51.4968 81.2476C45.3122 78.0209 40.8209 73.0472 38.9416 67.4878C37.0425 61.8699 37.8611 55.7583 42.1323 50.6204C46.1058 45.8408 52.4401 42.987 58.753 42.3381ZM59.1599 46.2967C53.6558 46.8625 48.3679 49.3447 45.1925 53.1644C41.847 57.1886 41.2337 61.8417 42.7115 66.2134C44.2091 70.6436 47.9037 74.8844 53.3376 77.7195C59.0557 80.7028 63.9393 80.9555 67.829 79.5135C71.7448 78.062 74.9818 74.7713 77.1366 70.0371C78.7901 66.4045 79.3118 63.0205 78.7491 59.8602C78.1868 56.7022 76.5079 53.577 73.4319 50.5173C70.012 47.1154 64.6685 45.7305 59.1599 46.2967Z" fill="#FF6043"/>
<path fill-rule="evenodd" clip-rule="evenodd" d="M75.0702 77.0435C76.0635 76.5734 77.2498 76.9976 77.7199 77.9909C79.0506 80.8027 81.2333 83.4018 83.4615 85.9662C83.5844 86.1077 83.7076 86.2493 83.8309 86.3909C84.7962 87.4999 85.7645 88.6125 86.5952 89.683C87.5268 90.8834 88.3838 92.1525 88.907 93.4565C89.3163 94.4764 88.8212 95.6349 87.8014 96.0441C86.7815 96.4534 85.623 95.9584 85.2137 94.9385C84.8972 94.1497 84.3081 93.2267 83.4513 92.1227C82.6942 91.147 81.8049 90.125 80.8271 89.0013C80.7053 88.8612 80.582 88.7196 80.4575 88.5763C78.2684 86.0568 75.7214 83.0709 74.1228 79.6931C73.6527 78.6999 74.0769 77.5136 75.0702 77.0435Z" fill="#FF6043"/>
<path fill-rule="evenodd" clip-rule="evenodd" d="M96.1606 63.5256C96.3249 62.4833 97.3031 61.7715 98.3454 61.9358L113.389 64.307C114.431 64.4713 115.143 65.4494 114.979 66.4917C114.814 67.534 113.836 68.2458 112.794 68.0815L97.7504 65.7103C96.7081 65.546 95.9963 64.5679 96.1606 63.5256Z" fill="#FF6043"/>
<path fill-rule="evenodd" clip-rule="evenodd" d="M98.5197 55.1203C98.3703 54.0758 99.0959 53.1079 100.14 52.9584L115.216 50.8015C116.261 50.652 117.229 51.3776 117.378 52.4222C117.528 53.4667 116.802 54.4346 115.757 54.5841L100.682 56.741C99.6371 56.8905 98.6692 56.1649 98.5197 55.1203Z" fill="#FF6043"/>
<path fill-rule="evenodd" clip-rule="evenodd" d="M69.6716 31.1479C68.6812 30.7837 68.1736 29.6857 68.5377 28.6953L78.2586 2.25844C78.6227 1.2681 79.7208 0.760464 80.7111 1.12461C81.7015 1.48876 82.2091 2.58679 81.845 3.57713L72.1241 30.014C71.76 31.0044 70.6619 31.512 69.6716 31.1479Z" fill="#FF6043"/>
<path fill-rule="evenodd" clip-rule="evenodd" d="M59.1308 29.9217C58.0821 30.0382 57.1375 29.2825 57.0209 28.2338L55.135 11.2601C55.0184 10.2113 55.7742 9.26674 56.8229 9.15021C57.8716 9.03369 58.8162 9.78938 58.9328 10.8381L60.8187 27.8118C60.9353 28.8605 60.1796 29.8051 59.1308 29.9217Z" fill="#FF6043"/>
<path fill-rule="evenodd" clip-rule="evenodd" d="M23.2551 57.1161C23.0601 58.1531 22.0614 58.8357 21.0244 58.6407L2.74232 55.2033C1.70531 55.0083 1.02271 54.0096 1.21769 52.9726C1.41267 51.9356 2.4114 51.253 3.44842 51.448L21.7305 54.8854C22.7675 55.0804 23.4501 56.0791 23.2551 57.1161Z" fill="#FF6043"/>
<path fill-rule="evenodd" clip-rule="evenodd" d="M26.0153 73.9731C26.2909 74.9916 25.6886 76.0407 24.6701 76.3163L9.92039 80.307C8.90182 80.5826 7.85271 79.9803 7.57712 78.9618C7.30153 77.9432 7.90383 76.8941 8.92239 76.6186L23.6721 72.6278C24.6906 72.3522 25.7397 72.9545 26.0153 73.9731Z" fill="#FF6043"/>
</g>
</svg>
