<svg width="1053" height="499" viewBox="0 0 1053 499" fill="none" xmlns="http://www.w3.org/2000/svg">
<g opacity="0.4">
<path d="M908.375 146.222C933.845 60.6143 984.777 32.4959 1007.06 29.1377C1015.05 91.6695 967.876 148.063 943.293 168.443L908.375 146.222Z" stroke="#E95135" stroke-width="6.51433" stroke-linecap="round" stroke-linejoin="round"/>
<path d="M881.648 125.616C891.439 110.232 918.883 97.6447 930.875 92.9522L911.23 139.464C907.623 132.618 889.27 126.674 881.648 125.616Z" stroke="#E95135" stroke-width="6.51433" stroke-linecap="round" stroke-linejoin="round"/>
<path d="M977.895 175.533C987.354 163.351 985.978 135.646 984.107 123.316C984.107 123.316 977.942 130.769 968.05 142.96C962.54 149.752 953.098 159.752 953.098 159.752C953.098 159.752 973.187 170.641 977.895 175.533Z" stroke="#E95135" stroke-width="6.51433" stroke-linecap="round" stroke-linejoin="round"/>
<path d="M957.561 87.9358C957.23 72.3674 965.174 71.0711 973.387 73.122C980.749 74.9604 988.109 84.6239 985.303 93.503C982.496 102.382 957.975 107.396 957.561 87.9358Z" stroke="#E95135" stroke-width="6.51433" stroke-linejoin="round"/>
<path d="M968.556 49.3977C981.392 55.67 1005.23 68.187 1003.98 71.9411" stroke="#E95135" stroke-width="6.51433" stroke-linecap="round" stroke-linejoin="round"/>
<path d="M911.46 158.109C903.363 165.991 885.429 184.488 878.473 195.419" stroke="#E95135" stroke-width="6.51433" stroke-linecap="round" stroke-linejoin="round"/>
<path d="M932.162 176.97C928.942 179.424 921.673 189.208 918.36 208.715" stroke="#E95135" stroke-width="6.51433" stroke-linecap="round" stroke-linejoin="round"/>
<path d="M917.353 168.981C914.961 171.251 905.143 187.945 902.125 196.263" stroke="#E95135" stroke-width="6.51433" stroke-linecap="round" stroke-linejoin="round"/>
</g>
<path opacity="0.4" d="M893.5 217C867.5 283 843 370.839 723.5 340C599.5 308 66 224 12.9995 354C-12.5974 416.784 6.49965 487.5 146 495.5" stroke="#E95135" stroke-width="6.51433" stroke-linecap="round" stroke-linejoin="round" stroke-dasharray="13.03 13.03"/>
</svg>
