<svg width="33" height="32" viewBox="0 0 33 32" fill="none" xmlns="http://www.w3.org/2000/svg">
<path d="M24.4997 10.6654H23.1663V7.9987C23.1663 4.3187 20.1797 1.33203 16.4997 1.33203C12.8197 1.33203 9.83301 4.3187 9.83301 7.9987V10.6654H8.49967C7.03301 10.6654 5.83301 11.8654 5.83301 13.332V26.6654C5.83301 28.132 7.03301 29.332 8.49967 29.332H24.4997C25.9663 29.332 27.1663 28.132 27.1663 26.6654V13.332C27.1663 11.8654 25.9663 10.6654 24.4997 10.6654ZM16.4997 22.6654C15.033 22.6654 13.833 21.4654 13.833 19.9987C13.833 18.532 15.033 17.332 16.4997 17.332C17.9663 17.332 19.1663 18.532 19.1663 19.9987C19.1663 21.4654 17.9663 22.6654 16.4997 22.6654ZM12.4997 10.6654V7.9987C12.4997 5.78536 14.2863 3.9987 16.4997 3.9987C18.713 3.9987 20.4997 5.78536 20.4997 7.9987V10.6654H12.4997Z" fill="#686B83"/>
</svg>
